<?xml version="1.0" encoding="utf-8"?>
<!-- Generator: Adobe Illustrator 17.0.0, SVG Export Plug-In . SVG Version: 6.00 Build 0)  -->
<!DOCTYPE svg PUBLIC "-//W3C//DTD SVG 1.1//EN" "http://www.w3.org/Graphics/SVG/1.1/DTD/svg11.dtd">
<svg version="1.1" id="Layer_1" xmlns="http://www.w3.org/2000/svg" xmlns:xlink="http://www.w3.org/1999/xlink" x="0px" y="0px"
	 width="960px" height="560px" viewBox="0 0 960 560" enable-background="new 0 0 960 560" xml:space="preserve">
<g>
	<g>
		<g>
			<g>
				<path fill="#FFC215" d="M288.7,187.4c-0.2-5.4,0-11.1,2.2-16.2c3.2-7.1,10-9.2,17.3-9.1c10.1,0.1,20.5,3.8,28.7,9.7
					c1.1,0.8,2.1,1.7,3.1,2.7c0.7,0.7,1.6,2.1,1.7,2.4c0.4,1,0.3,1.1,0.1,1.4c-0.4,0.8-1.3,1.4-2.7,2.1c-5.3,2.7-12.1,3.1-17.8,3.6
					c-12,1-24.1,0.6-36.1,0.1c-4.4-0.2-4.4,6.7,0,6.9c12.4,0.6,24.8,0.9,37.2-0.2c6.6-0.5,13.2-1.4,19.3-4
					c7.6-3.2,8.8-10.4,3.6-16.4c-4.8-5.6-12.6-9.3-19.5-11.7c-14-4.9-34.1-6-41.2,9.9c-2.6,5.9-3.1,12.6-2.9,18.9
					C282,191.8,288.9,191.8,288.7,187.4L288.7,187.4z"/>
			</g>
		</g>
		<g>
			<g>
				<path fill="#FFC215" d="M288.6,186.2c0.4-13.1-3-26.9-17-31.1c-12-3.6-26.7,0.8-37.4,6.9c-5.1,2.9-13.3,8.3-12.6,15.2
					c1.1,10.4,17.6,11.4,25.3,12.2c12.7,1.2,25.6,0.8,38.3,0.3c4.4-0.2,4.4-7.1,0-6.9c-11.6,0.5-23.3,0.8-35,0
					c-6.1-0.4-12.9-0.9-18.5-3.5c-1.3-0.6-2.6-1.6-3-2c-0.4-0.6-0.4-0.6-0.1-1.3c0.4-1.4,2.8-3.8,4.9-5.3c7.9-5.8,17.7-9,27.5-9.6
					c7.5-0.5,14.6,1.5,18.2,8.4c2.7,5,2.8,11.3,2.6,16.8C281.6,190.6,288.4,190.6,288.6,186.2L288.6,186.2z"/>
			</g>
		</g>
		<rect x="218" y="220" fill="#FFD662" width="132" height="87"/>
		<rect x="218" y="220" fill="#FFC215" width="132" height="19"/>
		<rect x="207" y="187" fill="#FFD662" width="151" height="27"/>
		<rect x="276" y="220" opacity="0.7" fill="#DD4A6D" width="13" height="87"/>
		<rect x="276" y="187" opacity="0.7" fill="#DD4A6D" width="13" height="27"/>
		<path fill="none" stroke="#DD4A6D" stroke-width="2.2842" stroke-miterlimit="10" d="M277.1,188.6"/>
		<path fill="none" stroke="#DD4A6D" stroke-width="2.2842" stroke-miterlimit="10" d="M332.8,187.9"/>
		<path fill="none" stroke="#DD4A6D" stroke-width="2.2842" stroke-miterlimit="10" d="M277.1,188.6"/>
		<g>
			<g>
				<path fill="#DD4A6D" d="M281.7,186.7c-0.4-11.8,1.3-26.3,14.2-30.8c12.2-4.2,27.5,0.1,38.8,5.8c3.2,1.6,6.5,3.6,9.3,5.8
					c2.2,1.8,4.6,4.3,5.2,5.9c0.6,1.6,0.5,2.5-1.3,3.9c-3.9,2.9-9.2,3.8-13.8,4.6c-18.2,3.2-37.3,2.2-55.6,1.4
					c-4.4-0.2-4.4,6.7,0,6.9c20.5,0.9,42.5,2.2,62.7-2.7c6.9-1.7,16.6-5.7,15.1-14.4c-1.1-6.6-8.2-11.4-13.5-14.7
					c-9.1-5.6-19.4-8.9-30-10.2c-12.1-1.4-24.4,0.6-31.9,11c-5.5,7.7-6.2,18.3-5.9,27.5C275,191.1,281.9,191.1,281.7,186.7
					L281.7,186.7z"/>
			</g>
		</g>
		<g>
			<g>
				<path fill="#DD4A6D" d="M293.5,185.7c0.4-12-1.3-26-11.8-33.6c-12.4-9-31.2-5.6-44.4-0.4c-8.9,3.5-33.7,15.9-22.5,28.6
					c4.9,5.6,14.5,6.8,21.3,7.8c17.8,2.5,36.1,1.9,54,1.1c4.4-0.2,4.4-7.1,0-6.9c-20.2,0.9-42.4,2.6-62.2-2.8
					c-3.2-0.9-7.3-2.5-8.6-4.6c-0.3-0.5-0.3-1.2-0.3-1.3c0.2-1.4,0.5-1.7,1.5-3c3.5-5,11.1-8.9,17-11.5c11.7-5.2,30.5-9.7,41.3-0.6
					c7.6,6.5,8.2,18,7.9,27.3C286.5,190.1,293.4,190.1,293.5,185.7L293.5,185.7z"/>
			</g>
		</g>
	</g>
	<g>
		<g>
			<g>
				<path fill="#DD4A6D" d="M455.8,187.4c-0.2-5.4,0-11.1,2.2-16.2c3.2-7.1,10-9.2,17.3-9.1c10.1,0.1,20.5,3.8,28.7,9.7
					c1.1,0.8,2.1,1.7,3.1,2.7c0.7,0.7,1.6,2.1,1.7,2.4c0.4,1,0.3,1.1,0.1,1.4c-0.4,0.8-1.3,1.4-2.7,2.1c-5.3,2.7-12.1,3.1-17.8,3.6
					c-12,1-24.1,0.6-36.1,0.1c-4.4-0.2-4.4,6.7,0,6.9c12.4,0.6,24.8,0.9,37.2-0.2c6.6-0.5,13.2-1.4,19.3-4
					c7.6-3.2,8.8-10.4,3.6-16.4c-4.8-5.6-12.6-9.3-19.5-11.7c-14-4.9-34.1-6-41.2,9.9c-2.6,5.9-3.1,12.6-2.9,18.9
					C449.1,191.8,455.9,191.8,455.8,187.4L455.8,187.4z"/>
			</g>
		</g>
		<g>
			<g>
				<path fill="#DD4A6D" d="M455.7,186.2c0.4-13.1-3-26.9-17-31.1c-12-3.6-26.7,0.8-37.4,6.9c-5.1,2.9-13.3,8.3-12.6,15.2
					c1.1,10.4,17.6,11.4,25.3,12.2c12.7,1.2,25.6,0.8,38.3,0.3c4.4-0.2,4.4-7.1,0-6.9c-11.6,0.5-23.3,0.8-35,0
					c-6.1-0.4-12.9-0.9-18.5-3.5c-1.3-0.6-2.6-1.6-3-2c-0.4-0.6-0.4-0.6-0.1-1.3c0.4-1.4,2.8-3.8,4.9-5.3c7.9-5.8,17.7-9,27.5-9.6
					c7.5-0.5,14.6,1.5,18.2,8.4c2.7,5,2.8,11.3,2.6,16.8C448.7,190.6,455.5,190.6,455.7,186.2L455.7,186.2z"/>
			</g>
		</g>
		<rect x="385" y="220" opacity="0.7" fill="#DD4A6D" width="132" height="87"/>
		<rect x="385" y="220" fill="#DD4A6D" width="132" height="19"/>
		<rect x="374" y="187" opacity="0.7" fill="#DD4A6D" width="151" height="27"/>
		<rect x="443" y="220" fill="#FFC215" width="13" height="87"/>
		<rect x="443" y="187" fill="#FFC215" width="13" height="27"/>
		<path fill="none" stroke="#DD4A6D" stroke-width="2.2842" stroke-miterlimit="10" d="M444.1,188.6"/>
		<path fill="none" stroke="#DD4A6D" stroke-width="2.2842" stroke-miterlimit="10" d="M499.8,187.9"/>
		<path fill="none" stroke="#DD4A6D" stroke-width="2.2842" stroke-miterlimit="10" d="M444.1,188.6"/>
		<g>
			<g>
				<path fill="#FFC215" d="M448.8,186.7c-0.4-11.8,1.3-26.3,14.2-30.8c12.2-4.2,27.5,0.1,38.8,5.8c3.2,1.6,6.5,3.6,9.3,5.8
					c2.2,1.8,4.6,4.3,5.2,5.9c0.6,1.6,0.5,2.5-1.3,3.9c-3.9,2.9-9.2,3.8-13.8,4.6c-18.2,3.2-37.3,2.2-55.6,1.4
					c-4.4-0.2-4.4,6.7,0,6.9c20.5,0.9,42.5,2.2,62.7-2.7c6.9-1.7,16.6-5.7,15.1-14.4c-1.1-6.6-8.2-11.4-13.5-14.7
					c-9.1-5.6-19.4-8.9-30-10.2c-12.1-1.4-24.4,0.6-31.9,11c-5.5,7.7-6.2,18.3-5.9,27.5C442.1,191.1,448.9,191.1,448.8,186.7
					L448.8,186.7z"/>
			</g>
		</g>
		<g>
			<g>
				<path fill="#FFC215" d="M460.6,185.7c0.4-12-1.3-26-11.8-33.6c-12.4-9-31.2-5.6-44.4-0.4c-8.9,3.5-33.7,15.9-22.5,28.6
					c4.9,5.6,14.5,6.8,21.3,7.8c17.8,2.5,36.1,1.9,54,1.1c4.4-0.2,4.4-7.1,0-6.9c-20.2,0.9-42.4,2.6-62.2-2.8
					c-3.2-0.9-7.3-2.5-8.6-4.6c-0.3-0.5-0.3-1.2-0.3-1.3c0.2-1.4,0.5-1.7,1.5-3c3.5-5,11.1-8.9,17-11.5c11.7-5.2,30.5-9.7,41.3-0.6
					c7.6,6.5,8.2,18,7.9,27.3C453.6,190.1,460.5,190.1,460.6,185.7L460.6,185.7z"/>
			</g>
		</g>
	</g>
	<g>
		<g>
			<g>
				<path fill="#DD4A6D" d="M136.9,226.7c-0.3-9.4,2.9-16.7,13.5-16.4c6.2,0.2,12.5,2.6,17.6,6.1c2.7,1.9,5.1,4,1.5,5.8
					c-3.4,1.7-7.8,1.9-11.4,2.2c-7.8,0.6-15.6,0.4-23.4,0c-2.9-0.1-2.9,4.3,0,4.4c8.8,0.4,17.6,0.6,26.4-0.3c4-0.4,8.7-1,12.1-3.4
					c5-3.5,2-8.8-1.8-11.8c-6.5-5-15.1-7.7-23.3-7.6c-11.9,0.2-15.9,10.6-15.6,20.8C132.5,229.6,137,229.6,136.9,226.7L136.9,226.7z
					"/>
			</g>
		</g>
		<g>
			<g>
				<path fill="#DD4A6D" d="M136.8,226c0.3-10.3-3.3-19.4-14.5-20.8c-8-0.9-17.5,2.3-23.9,7.1c-3.7,2.7-7.5,8-2.7,11.8
					c3.2,2.5,7.7,3.2,11.6,3.7c9.1,1.1,18.3,0.8,27.3,0.4c2.9-0.1,2.9-4.6,0-4.4c-10.9,0.5-23.9,1.8-34.4-2.1
					c-4-1.5-1.9-3.7,0.8-5.7c4.8-3.6,10.7-5.5,16.6-6.2c11.3-1.4,15.1,6.4,14.8,16.3C132.3,228.8,136.7,228.8,136.8,226L136.8,226z"
					/>
			</g>
		</g>
		<rect x="92" y="247" opacity="0.7" fill="#DD4A6D" width="85" height="58"/>
		<rect x="92" y="247" fill="#DD4A6D" width="85" height="14"/>
		<rect x="84" y="225" opacity="0.7" fill="#DD4A6D" width="99" height="19"/>
		<rect x="128" y="247" fill="#FFC215" width="8" height="58"/>
		<rect x="128" y="225" fill="#FFC215" width="8" height="19"/>
		<path fill="none" stroke="#DD4A6D" stroke-width="1.4824" stroke-miterlimit="10" d="M129.3,227.5"/>
		<path fill="none" stroke="#DD4A6D" stroke-width="1.4824" stroke-miterlimit="10" d="M165.5,227.1"/>
		<path fill="none" stroke="#DD4A6D" stroke-width="1.4824" stroke-miterlimit="10" d="M129.3,227.5"/>
		<g>
			<g>
				<path fill="#FFC215" d="M132.3,226.3c-0.1-4.4,0-9,1.8-13.1c2.6-6,8.5-7.8,14.6-7.7c8.1,0.1,16.5,3.1,23.1,7.8
					c3.4,2.4,6.4,5.5,1.8,7.9c-4.4,2.2-10.1,2.5-14.9,2.9c-9.5,0.8-19.1,0.5-28.6,0c-2.9-0.1-2.9,4.3,0,4.4
					c10.9,0.5,21.9,0.8,32.8-0.4c4.8-0.5,10.3-1.3,14.4-4c6.4-4.2,2-10.7-2.6-14.2c-8-6-18.5-9.2-28.4-8.9
					c-14.3,0.4-18.9,12.9-18.5,25.3C128,229.1,132.4,229.1,132.3,226.3L132.3,226.3z"/>
			</g>
		</g>
		<g>
			<g>
				<path fill="#FFC215" d="M140,225.6c0.4-12.3-3.8-23.6-17.4-25.2c-9.9-1.2-21.6,2.8-29.5,8.8c-4.5,3.4-8.8,9.6-2.9,13.9
					c3.9,2.8,9.2,3.5,13.8,4.1c11.1,1.5,22.6,1,33.8,0.5c2.9-0.1,2.9-4.6,0-4.4c-9.2,0.4-18.3,0.6-27.5,0.1
					c-5.1-0.3-10.8-0.7-15.6-2.8c-5.3-2.3-2.3-5.5,1.3-8.1c6.3-4.6,14.1-7.1,21.9-7.7c6.3-0.5,12.4,1.2,15.5,7
					c2.2,4.1,2.3,9.2,2.1,13.8C135.5,228.5,139.9,228.5,140,225.6L140,225.6z"/>
			</g>
		</g>
	</g>
	<g>
		<g>
			<g>
				<path fill="#FFC215" d="M599.9,240.1c-0.3-8.5,2.6-15,12.1-14.7c5.6,0.2,11.2,2.3,15.8,5.5c2.4,1.7,4.6,3.6,1.4,5.2
					c-3,1.5-7,1.7-10.3,2c-7,0.6-14,0.3-21,0c-2.6-0.1-2.6,3.9,0,4c7.9,0.4,15.9,0.6,23.8-0.3c3.6-0.4,7.8-0.9,10.9-3.1
					c4.5-3.2,1.8-7.9-1.7-10.6c-5.9-4.5-13.6-6.9-20.9-6.8c-10.7,0.1-14.3,9.5-14,18.7C596,242.6,600,242.6,599.9,240.1L599.9,240.1
					z"/>
			</g>
		</g>
		<g>
			<g>
				<path fill="#FFC215" d="M599.8,239.3c0.3-9.2-2.9-17.5-13.1-18.7c-7.2-0.9-15.7,2.1-21.5,6.4c-3.3,2.5-6.8,7.2-2.5,10.6
					c2.9,2.3,6.9,2.9,10.4,3.3c8.1,1,16.4,0.8,24.6,0.4c2.6-0.1,2.6-4.1,0-4c-9.8,0.4-21.5,1.6-31-1.9c-3.6-1.3-1.7-3.4,0.7-5.1
					c4.3-3.2,9.6-5,15-5.6c10.1-1.2,13.6,5.8,13.3,14.6C595.7,241.9,599.7,241.9,599.8,239.3L599.8,239.3z"/>
			</g>
		</g>
		<rect x="558" y="258" fill="#FFD662" width="77" height="52"/>
		<rect x="558" y="258" fill="#FFC215" width="77" height="11"/>
		<rect x="552" y="239" fill="#FFD662" width="88" height="16"/>
		<rect x="593" y="258" opacity="0.7" fill="#DD4A6D" width="9" height="52"/>
		<rect x="593" y="239" opacity="0.7" fill="#DD4A6D" width="9" height="16"/>
		<path fill="none" stroke="#DD4A6D" stroke-width="1.3331" stroke-miterlimit="10" d="M593.1,240.7"/>
		<path fill="none" stroke="#DD4A6D" stroke-width="1.3331" stroke-miterlimit="10" d="M625.6,240.4"/>
		<path fill="none" stroke="#DD4A6D" stroke-width="1.3331" stroke-miterlimit="10" d="M593.1,240.7"/>
		<g>
			<g>
				<path fill="#DD4A6D" d="M595.8,239.6c-0.3-10.5,3.1-19,15-18.8c7.1,0.1,14.4,2.8,20.3,6.8c2.9,2,6.2,5,1.9,7.3
					c-4,2.1-9.1,2.3-13.5,2.7c-8.5,0.7-17.1,0.4-25.7,0c-2.6-0.1-2.6,3.9,0,4c9.9,0.4,20,0.7,29.9-0.4c4.3-0.5,9.2-1.1,12.8-3.7
					c5.4-3.8,1.7-9.4-2.3-12.5c-7.2-5.5-16.8-8.4-25.7-8.1c-12.9,0.3-17,11.7-16.7,22.7C591.9,242.2,595.9,242.2,595.8,239.6
					L595.8,239.6z"/>
			</g>
		</g>
		<g>
			<g>
				<path fill="#DD4A6D" d="M602.7,239c0.3-11-3.4-21.2-15.6-22.7c-8.9-1.1-19.3,2.5-26.5,7.8c-3.9,2.9-8.2,8.4-3.1,12.4
					c3.4,2.6,8.1,3.4,12.3,3.9c10.2,1.3,20.6,1,30.8,0.5c2.6-0.1,2.6-4.1,0-4c-8.2,0.4-16.4,0.5-24.5,0.1c-4.7-0.3-9.8-0.7-14.2-2.5
					c-4.7-2-2-5,1.1-7.2c5.6-4.1,12.5-6.3,19.4-7c5.8-0.6,11.4,0.9,14.3,6.2c2,3.7,2.1,8.3,1.9,12.4
					C598.6,241.6,602.6,241.6,602.7,239L602.7,239z"/>
			</g>
		</g>
	</g>
</g>
<g>
</g>
<g>
</g>
<g>
</g>
<g>
</g>
<g>
</g>
<g>
</g>
<g>
</g>
<g>
</g>
<g>
</g>
<g>
</g>
<g>
</g>
<g>
</g>
<g>
</g>
<g>
</g>
<g>
</g>
</svg>
