<?xml version="1.0" encoding="utf-8"?>
<!-- Generator: Adobe Illustrator 17.0.0, SVG Export Plug-In . SVG Version: 6.00 Build 0)  -->
<!DOCTYPE svg PUBLIC "-//W3C//DTD SVG 1.1//EN" "http://www.w3.org/Graphics/SVG/1.1/DTD/svg11.dtd">
<svg version="1.1" id="Layer_1" xmlns="http://www.w3.org/2000/svg" xmlns:xlink="http://www.w3.org/1999/xlink" x="0px" y="0px"
	 width="91.3px" height="87.4px" viewBox="0 0 91.3 87.4" enable-background="new 0 0 91.3 87.4" xml:space="preserve">
<g opacity="0.7">
	<g>
		<g>
			
				<line fill="none" stroke="#F7B0B2" stroke-width="0.9483" stroke-linecap="round" stroke-linejoin="round" stroke-miterlimit="10" x1="21.4" y1="16" x2="23.7" y2="18.4"/>
			
				<line fill="none" stroke="#F7B0B2" stroke-width="0.9483" stroke-linecap="round" stroke-linejoin="round" stroke-miterlimit="10" x1="21.4" y1="18.4" x2="23.7" y2="16"/>
			
				<line fill="none" stroke="#F7B0B2" stroke-width="0.9483" stroke-linecap="round" stroke-linejoin="round" stroke-miterlimit="10" x1="22.5" y1="18.9" x2="22.5" y2="15.6"/>
			
				<line fill="none" stroke="#F7B0B2" stroke-width="0.9483" stroke-linecap="round" stroke-linejoin="round" stroke-miterlimit="10" x1="24.2" y1="17.2" x2="20.9" y2="17.2"/>
		</g>
		<g>
			
				<line fill="none" stroke="#F7B0B2" stroke-width="0.9483" stroke-linecap="round" stroke-linejoin="round" stroke-miterlimit="10" x1="28.5" y1="10.2" x2="30.8" y2="12.6"/>
			
				<line fill="none" stroke="#F7B0B2" stroke-width="0.9483" stroke-linecap="round" stroke-linejoin="round" stroke-miterlimit="10" x1="28.5" y1="12.6" x2="30.8" y2="10.2"/>
			
				<line fill="none" stroke="#F7B0B2" stroke-width="0.9483" stroke-linecap="round" stroke-linejoin="round" stroke-miterlimit="10" x1="29.6" y1="13" x2="29.6" y2="9.7"/>
			
				<line fill="none" stroke="#F7B0B2" stroke-width="0.9483" stroke-linecap="round" stroke-linejoin="round" stroke-miterlimit="10" x1="31.3" y1="11.4" x2="28" y2="11.4"/>
		</g>
		<g>
			
				<line fill="none" stroke="#F7B0B2" stroke-width="0.9483" stroke-linecap="round" stroke-linejoin="round" stroke-miterlimit="10" x1="38.2" y1="6.4" x2="40.5" y2="8.7"/>
			
				<line fill="none" stroke="#F7B0B2" stroke-width="0.9483" stroke-linecap="round" stroke-linejoin="round" stroke-miterlimit="10" x1="38.2" y1="8.7" x2="40.5" y2="6.4"/>
			
				<line fill="none" stroke="#F7B0B2" stroke-width="0.9483" stroke-linecap="round" stroke-linejoin="round" stroke-miterlimit="10" x1="39.4" y1="9.2" x2="39.4" y2="5.9"/>
			
				<line fill="none" stroke="#F7B0B2" stroke-width="0.9483" stroke-linecap="round" stroke-linejoin="round" stroke-miterlimit="10" x1="41" y1="7.6" x2="37.7" y2="7.6"/>
		</g>
		<g>
			
				<line fill="none" stroke="#F7B0B2" stroke-width="0.9483" stroke-linecap="round" stroke-linejoin="round" stroke-miterlimit="10" x1="66.6" y1="16" x2="69" y2="18.4"/>
			
				<line fill="none" stroke="#F7B0B2" stroke-width="0.9483" stroke-linecap="round" stroke-linejoin="round" stroke-miterlimit="10" x1="66.6" y1="18.4" x2="69" y2="16"/>
			
				<line fill="none" stroke="#F7B0B2" stroke-width="0.9483" stroke-linecap="round" stroke-linejoin="round" stroke-miterlimit="10" x1="67.8" y1="18.9" x2="67.8" y2="15.6"/>
			
				<line fill="none" stroke="#F7B0B2" stroke-width="0.9483" stroke-linecap="round" stroke-linejoin="round" stroke-miterlimit="10" x1="69.5" y1="17.2" x2="66.1" y2="17.2"/>
		</g>
		<g>
			
				<line fill="none" stroke="#F7B0B2" stroke-width="0.9483" stroke-linecap="round" stroke-linejoin="round" stroke-miterlimit="10" x1="59.9" y1="10.2" x2="62.2" y2="12.6"/>
			
				<line fill="none" stroke="#F7B0B2" stroke-width="0.9483" stroke-linecap="round" stroke-linejoin="round" stroke-miterlimit="10" x1="59.9" y1="12.6" x2="62.2" y2="10.2"/>
			
				<line fill="none" stroke="#F7B0B2" stroke-width="0.9483" stroke-linecap="round" stroke-linejoin="round" stroke-miterlimit="10" x1="61.1" y1="13" x2="61.1" y2="9.7"/>
			
				<line fill="none" stroke="#F7B0B2" stroke-width="0.9483" stroke-linecap="round" stroke-linejoin="round" stroke-miterlimit="10" x1="62.7" y1="11.4" x2="59.4" y2="11.4"/>
		</g>
		<g>
			
				<line fill="none" stroke="#F7B0B2" stroke-width="0.9483" stroke-linecap="round" stroke-linejoin="round" stroke-miterlimit="10" x1="49.7" y1="6.4" x2="52" y2="8.7"/>
			
				<line fill="none" stroke="#F7B0B2" stroke-width="0.9483" stroke-linecap="round" stroke-linejoin="round" stroke-miterlimit="10" x1="49.7" y1="8.7" x2="52" y2="6.4"/>
			
				<line fill="none" stroke="#F7B0B2" stroke-width="0.9483" stroke-linecap="round" stroke-linejoin="round" stroke-miterlimit="10" x1="50.9" y1="9.2" x2="50.9" y2="5.9"/>
			
				<line fill="none" stroke="#F7B0B2" stroke-width="0.9483" stroke-linecap="round" stroke-linejoin="round" stroke-miterlimit="10" x1="52.5" y1="7.6" x2="49.2" y2="7.6"/>
		</g>
	</g>
	<g>
		<g>
			<path fill="#125038" d="M9.2,45.2c1.8,0.4,3.6,2.2,5.8,2.2c0.5,0,0.9-0.1,1.4-0.3c-0.2,1.6-0.9,2.7-1.8,2.7
				c-2.5,0-4.6-3.9-7.7-3.9c-0.1,0-0.3,0-0.4,0L9.1,34c-1.5,0.6-2.4,1.9-2.4,3.7c0,0.9,0.2,1,0.2,1.2c-1.2,0-1.8-0.4-1.8-1.7
				c0-2.3,3.2-4.5,6-4.5c0.2,0,0.5,0,0.7,0L9.2,45.2z"/>
			<path fill="#125038" d="M19.4,36.9l-1.2,5.8c-0.1,0.2-0.1,0.4-0.1,0.5c0,0.5,0.2,0.6,0.7,0.6c0.7,0,1.1-0.7,1.4-1.5h0.7
				c-1,2.8-2.5,3.2-3.5,3.2c-1,0-1.6-0.6-1.7-1.6c-0.9,1.4-1.8,1.6-2.5,1.6c-1,0-1.8-0.6-1.8-2.1c0-0.3,0.1-0.7,0.1-1.1l1.2-5.5h2.5
				l-1.2,5.8c0,0.2-0.1,0.3-0.1,0.5c0,0.4,0.1,0.7,0.5,0.7c0.7,0,1.1-0.7,1.4-1.5l1.2-5.5H19.4z"/>
			<path fill="#125038" d="M24.5,38.4c-0.6,0-1.1,0.7-1.3,1.6L22,45.5h-2.5l1.8-8.6h2.5l-0.2,0.9c0.7-0.8,1.5-1,2-1
				c1.1,0,1.9,0.6,1.9,1.9c0,1.4-0.8,3.5-0.8,4.4c0,0.4,0.2,0.7,0.7,0.7c0.8,0,1.1-0.6,1.4-1.5h0.7c-1,2.8-2.3,3.2-3.2,3.2
				c-1.5,0-2-1-2-1.9c0-1.2,0.8-3.3,0.8-4.4C25.1,38.7,24.9,38.4,24.5,38.4z"/>
			<path fill="#125038" d="M32.4,44.2c1.4,0,2.2-0.8,3-1.7H36c-1,1.6-2.4,3.2-4.7,3.2c-1.6,0-2.7-0.8-2.7-2.7c0-2,1.1-6.1,4.6-6.1
				c1.5,0,1.9,0.8,1.9,1.6c0,2-1.9,3.5-3.9,3.6c0,0.2,0,0.5,0,0.7C31.1,43.9,31.6,44.2,32.4,44.2z M33.4,37.7
				c-0.9,0-1.7,1.8-2.1,3.5c1.3-0.1,2.5-1.4,2.5-2.8C33.8,37.9,33.7,37.7,33.4,37.7z"/>
			<path fill="#125038" d="M39.7,38.4c-0.6,0-1.1,0.7-1.3,1.6l-1.2,5.5h-2.5l1.8-8.6h2.5l-0.2,0.9c0.7-0.8,1.5-1,2-1
				c1.1,0,1.9,0.6,1.9,1.9c0,1.4-0.8,3.5-0.8,4.4c0,0.4,0.2,0.7,0.7,0.7c0.8,0,1.1-0.6,1.4-1.5h0.7c-1,2.8-2.3,3.2-3.2,3.2
				c-1.5,0-2-1-2-1.9c0-1.2,0.8-3.3,0.8-4.4C40.4,38.7,40.2,38.4,39.7,38.4z"/>
			<path fill="#125038" d="M45.9,33.8l2.5-0.3l-0.8,3.9c0.7-0.4,1.1-0.5,1.4-0.5c1.2,0,2,0.8,2,2.9c0,2-1.1,5.8-4.7,5.8
				c-1.6,0-2.4-0.8-2.4-2.2c0-0.3,0-0.6,0.1-1L45.9,33.8z M48.4,38.1c-0.2,0-0.8,0.1-1,0.3l-0.9,4.4c0,0.1-0.1,0.3-0.1,0.4
				c0,0.5,0.3,0.8,0.9,0.8c1.1,0,2-2.4,2-4.2C49.3,38.9,49,38.1,48.4,38.1z"/>
			<path fill="#125038" d="M59.6,36.9l-1.2,5.8c-0.1,0.2-0.1,0.4-0.1,0.5c0,0.5,0.2,0.6,0.7,0.6c0.7,0,1.1-0.7,1.4-1.5h0.7
				c-1,2.8-2.5,3.2-3.5,3.2c-1,0-1.6-0.6-1.7-1.6c-0.9,1.4-1.8,1.6-2.5,1.6c-1,0-1.8-0.6-1.8-2.1c0-0.3,0.1-0.7,0.1-1.1l1.2-5.5h2.5
				l-1.2,5.8c0,0.2-0.1,0.3-0.1,0.5c0,0.4,0.1,0.7,0.5,0.7c0.7,0,1.1-0.7,1.4-1.5l1.2-5.5H59.6z"/>
			<path fill="#125038" d="M64,36.9L63.8,38c0.6-0.5,1.3-1.1,2.1-1.1c0.8,0,1.2,0.6,1.2,1.3c0,0.6-0.4,1.3-1.2,1.3
				c-1,0-0.5-1.1-1-1.1c-0.5,0-0.8,0.3-1.3,0.7l-1.4,6.5h-2.5l1.8-8.6H64z"/>
			<path fill="#125038" d="M72.6,36.9h2.5l-2.1,10c-0.5,2.5-2,2.9-3.1,2.9c-1,0-2-0.7-2-1.9c0-1.6,1.3-2.1,3-2.6l0.2-0.7
				c-0.5,0.5-1.2,1-2.1,1c-1.2,0-2.3-0.7-2.3-2.8c0-2.3,1.4-6,4.4-6c1,0,1.4,0.4,1.4,0.9L72.6,36.9z M69.4,48.3c0.4,0,0.8-0.3,1-1.3
				l0.2-1c-1.1,0.4-1.9,0.9-1.9,1.8C68.8,47.9,69.1,48.3,69.4,48.3z M69.1,42.6c0,1.3,0.5,1.3,0.9,1.3c0.5,0,1.2-0.4,1.4-1.3
				l0.9-4.2c0-0.2-0.2-0.6-0.7-0.6C70.1,37.9,69.1,41,69.1,42.6z"/>
		</g>
		<g>
			<path fill="#125138" d="M22.7,54.1l-1.9,8.6c-0.8,3.5-2.1,5.7-5.9,5.7c-2.2,0-3.2-1.6-3.2-3.2c0-1.6,1-3.1,2.8-3.1
				c0.9,0,2.2,0.1,2.2,1.5c0,0.3,0,0.6-0.1,0.9c-0.6-0.5-0.9-0.6-1.4-0.6c-1.1,0-1.6,0.9-1.6,1.7c0,0.8,0.5,1.6,1.4,1.6
				c1,0,1.8-0.5,2.3-2.8l0.9-4.1c-1.3,0.7-2.6,0.8-2.8,0.8c-3.7,0-4.9-2.7-4.9-5.9c0-4.4,3-8.8,8.1-8.8c2.1,0,4.3,0.8,4.3,3.1
				c0,1.2-0.4,2.1-1.6,2.1c-0.4,0-1.1-0.1-1.6-0.6c0.6-0.2,1-1.3,1-1.9c0-0.4-0.1-1.6-1.6-1.6c-2.5,0-5.1,4.3-5.1,7.9
				c0,2,0.8,3.8,2.7,3.8c0.8,0,1.5-0.2,1.9-0.8l1-4.3L22.7,54.1z"/>
			<path fill="#125138" d="M28.2,52.2L26.6,60c-0.1,0.3-0.1,0.5-0.1,0.7c0,0.6,0.3,0.8,0.9,0.8c0.9,0,1.7-0.9,2.1-2h1
				c-1.3,3.7-3.6,4.2-4.8,4.2c-1.4,0-2.4-0.8-2.4-2.7c0-0.4,0.1-0.9,0.2-1.5l1.6-7.3H28.2z M27.2,47.4c1,0,1.8,0.8,1.8,1.8
				c0,1-0.8,1.8-1.8,1.8c-1,0-1.8-0.8-1.8-1.8C25.4,48.2,26.2,47.4,27.2,47.4z"/>
			<path fill="#125138" d="M39.1,60C39,60.3,39,60.5,39,60.7c0,0.6,0.3,0.8,0.9,0.8c0.9,0,1.7-0.9,2.1-2h1c-1.3,3.7-3.6,4.2-4.8,4.2
				c-1.4,0-2.4-0.8-2.4-2.7c0-0.4,0.1-0.9,0.2-1.5l1.3-6.4h-3.1l-2.6,12.3c-0.7,3.3-2.7,3.9-4.2,3.9c-1.4,0-2.7-1-2.7-2.5
				c0-2.1,1.8-2.8,4-3.4l2.7-13.1c0.7-3.3,2.7-3.9,4.2-3.9c2.1,0,4,0.8,6.1,1.6l-0.9,4.1h1.4l-0.2,0.9h-1.4L39.1,60z M26.9,67.3
				c0.5,0,1.1-0.4,1.3-1.8l0.3-1.3c-1.4,0.5-2.5,1.1-2.5,2.4C26,66.9,26.4,67.3,26.9,67.3z M38.3,48.3c-0.6-0.3-1.6-0.4-1.9-0.4
				c-0.5,0-1.2,0.3-1.6,1.8l-0.5,2.4h3.1L38.3,48.3z"/>
			<path fill="#125138" d="M53.4,54.2c-0.8,0-1.4,1-1.8,2.1l-1.6,7.3h-3.3l1.7-7.9c0-0.2,0.1-0.4,0.1-0.6c0-0.5-0.2-1-0.7-1
				c-0.9,0-1.5,1-1.9,2.1l-1.6,7.3h-3.3l2.4-11.4h3.3l-0.3,1.2c1-1.1,2-1.3,2.8-1.3c1.2,0,2.1,0.5,2.4,2c1.1-1.7,2.3-1.9,3.2-1.9
				c1.5,0,2.5,0.8,2.5,2.6c0,1.9-1.1,4.6-1.1,5.9c0,0.6,0.2,1,0.9,1c1,0,1.4-0.8,1.9-2h1c-1.3,3.7-3,4.2-4.3,4.2
				c-2,0-2.7-1.3-2.7-2.6c0-1.6,1-4.4,1-5.8C54.2,54.6,54,54.2,53.4,54.2z"/>
			<path fill="#125138" d="M70.2,52.2L68.5,60c-0.1,0.3-0.1,0.5-0.1,0.7c0,0.6,0.3,1,0.9,1c0.9,0,1.5-1,1.9-2.1h1
				c-1.3,3.7-3.4,4.2-4.6,4.2c-1.3,0-2.1-0.7-2.2-2.1c-0.7,1.1-1.8,2.1-3.4,2.1c-1.6,0-3-1-3-3.7c0-3.1,1.9-8,5.9-8
				c1.3,0,1.9,0.5,1.9,1.2v0.2l0.3-1.2H70.2z M62.3,59.8c0,1.8,0.7,1.8,1.1,1.8c0.7,0,1.6-0.7,1.9-2l1.1-5.2c0-0.3-0.2-0.9-0.9-0.9
				C63.5,53.5,62.3,57.6,62.3,59.8z"/>
			<path fill="#125138" d="M76.1,52.2l-0.3,1.4c0.8-0.7,1.7-1.4,2.8-1.4c1,0,1.6,0.8,1.6,1.7c0,0.8-0.5,1.7-1.6,1.7
				c-1.3,0-0.6-1.5-1.3-1.5c-0.7,0-1.1,0.3-1.7,0.9l-1.8,8.7h-3.3l2.4-11.4H76.1z"/>
			<path fill="#125138" d="M83.1,60C83,60.3,83,60.5,83,60.8c0,0.5,0.2,0.8,0.8,0.8c0.2,0,0.4,0,0.6-0.1c-0.6,2-1.6,2.2-2.4,2.2
				c-1.6,0-2.3-1.1-2.3-2.6c0-0.4,0-0.8,0.1-1.2l1.5-6.9h-0.8l0.2-0.9h0.8l0.7-3.2l3.4-0.5c0,0-0.3,1.6-0.8,3.6h1.4l-0.2,0.9h-1.4
				L83.1,60z"/>
		</g>
	</g>
	<g>
		<path fill="#9D5023" d="M35.8,18.7c0-0.6-0.1-1-0.3-1.2s-0.4-0.3-0.8-0.3c-0.3,0-0.6,0.1-0.8,0.3c-0.2,0.2-0.3,0.5-0.3,1v1.4h-1.9
			v-1.2c0-1,0.3-1.8,0.8-2.4c0.5-0.6,1.3-0.8,2.2-0.8c1,0,1.7,0.3,2.2,0.8c0.5,0.6,0.8,1.4,0.8,2.4c0,0.7-0.1,1.3-0.3,1.8
			c-0.2,0.5-0.4,1-0.7,1.5c-0.3,0.4-0.6,0.9-1,1.2c-0.3,0.4-0.7,0.7-1,1.1c-0.3,0.3-0.5,0.7-0.7,1c-0.2,0.3-0.3,0.7-0.3,1
			c0,0.1,0,0.2,0,0.3h3.8v1.8h-5.8v-1.6c0-0.6,0.1-1.2,0.3-1.7c0.2-0.5,0.4-0.9,0.7-1.3c0.3-0.4,0.6-0.8,1-1.1
			c0.3-0.3,0.7-0.7,1-1.1c0.3-0.4,0.5-0.8,0.7-1.3C35.7,19.9,35.8,19.4,35.8,18.7z"/>
		<path fill="#9D5023" d="M38.9,18.7c0-1,0.3-1.8,0.8-2.4c0.5-0.6,1.3-0.8,2.3-0.8s1.7,0.3,2.3,0.8c0.5,0.6,0.8,1.4,0.8,2.4v6.7
			c0,1-0.3,1.8-0.8,2.4c-0.5,0.6-1.3,0.8-2.3,0.8s-1.7-0.3-2.3-0.8c-0.5-0.6-0.8-1.4-0.8-2.4V18.7z M40.9,25.5c0,0.5,0.1,0.8,0.3,1
			c0.2,0.2,0.4,0.3,0.8,0.3c0.3,0,0.6-0.1,0.8-0.3c0.2-0.2,0.3-0.5,0.3-1v-6.9c0-0.5-0.1-0.8-0.3-1c-0.2-0.2-0.4-0.3-0.8-0.3
			c-0.3,0-0.6,0.1-0.8,0.3s-0.3,0.5-0.3,1V25.5z"/>
		<path fill="#9D5023" d="M47.5,17.2c0.4,0,0.7,0,1-0.1c0.3-0.1,0.5-0.2,0.6-0.3c0.2-0.1,0.3-0.3,0.4-0.5c0.1-0.2,0.2-0.4,0.3-0.6
			h1.4v12.8h-2v-9.8h-1.6V17.2z"/>
		<path fill="#9D5023" d="M55.4,24.3v1.2c0,0.5,0.1,0.8,0.3,1c0.2,0.2,0.4,0.3,0.8,0.3c0.3,0,0.6-0.1,0.8-0.3c0.2-0.2,0.3-0.5,0.3-1
			v-2.8c0-0.5-0.1-0.8-0.3-1c-0.2-0.2-0.4-0.3-0.8-0.3c-0.3,0-0.6,0.1-0.8,0.3c-0.2,0.2-0.3,0.5-0.3,1V23h-1.9l0.4-7.4h5.3v1.8h-3.5
			l-0.2,3.1c0.4-0.6,1-0.9,1.8-0.9c0.7,0,1.3,0.3,1.7,0.8c0.4,0.5,0.6,1.2,0.6,2.2v2.9c0,1-0.3,1.8-0.8,2.4
			c-0.5,0.6-1.3,0.8-2.2,0.8c-1,0-1.7-0.3-2.2-0.8c-0.5-0.6-0.8-1.4-0.8-2.4v-1.1H55.4z"/>
	</g>
</g>
<g>
</g>
<g>
</g>
<g>
</g>
<g>
</g>
<g>
</g>
<g>
</g>
<g>
</g>
<g>
</g>
<g>
</g>
<g>
</g>
<g>
</g>
<g>
</g>
<g>
</g>
<g>
</g>
<g>
</g>
</svg>
