<?xml version="1.0" encoding="utf-8"?>
<!-- Generator: Adobe Illustrator 17.0.0, SVG Export Plug-In . SVG Version: 6.00 Build 0)  -->
<!DOCTYPE svg PUBLIC "-//W3C//DTD SVG 1.1//EN" "http://www.w3.org/Graphics/SVG/1.1/DTD/svg11.dtd">
<svg version="1.1" id="Layer_1" xmlns="http://www.w3.org/2000/svg" xmlns:xlink="http://www.w3.org/1999/xlink" x="0px" y="0px"
	 width="91.3px" height="87.4px" viewBox="0 0 91.3 87.4" enable-background="new 0 0 91.3 87.4" xml:space="preserve">
<g>
	<rect x="74.2" y="32.4" fill="#756044" width="0.8" height="0"/>
	<rect x="11" y="22" fill="#F7F0F0" width="69" height="53"/>
	<g>
		<path fill="#C65C54" d="M10.9,19.7c0-7.5,3.3-7.7,3.3-7.7h62.2c1.9,0,3.6,4.9,3.6,8.8v0.1c0,3.9-1.7,6.2-3.6,6.2H11"/>
		<rect x="77" y="20" fill="#C65C54" width="3" height="7"/>
	</g>
	<g>
		<path fill="#F7F0F0" d="M27.4,20.3c0,1.2-0.3,2.1-1,2.8c-0.7,0.6-1.6,1-2.9,1h-2.1v-7.3h2.3c1.2,0,2.1,0.3,2.7,0.9
			C27,18.2,27.4,19.1,27.4,20.3z M26.1,20.3c0-1.8-0.8-2.6-2.5-2.6h-1V23h0.9C25.2,23,26.1,22.1,26.1,20.3z"/>
		<path fill="#F7F0F0" d="M31.3,24.1c-0.9,0-1.5-0.3-2-0.8c-0.5-0.5-0.7-1.2-0.7-2.1c0-0.9,0.2-1.6,0.7-2.1c0.5-0.5,1.1-0.8,1.9-0.8
			c0.7,0,1.3,0.2,1.7,0.7s0.6,1.1,0.6,1.8v0.6h-3.7c0,0.5,0.2,1,0.4,1.2c0.3,0.3,0.7,0.4,1.2,0.4c0.3,0,0.6,0,0.9-0.1
			c0.3-0.1,0.6-0.2,0.9-0.3v1c-0.3,0.1-0.6,0.2-0.9,0.3C32,24.1,31.6,24.1,31.3,24.1z M31,19.2c-0.4,0-0.7,0.1-0.9,0.4
			c-0.2,0.2-0.4,0.6-0.4,1h2.5c0-0.5-0.1-0.8-0.3-1S31.4,19.2,31,19.2z"/>
		<path fill="#F7F0F0" d="M37,24.1c-0.8,0-1.5-0.2-1.9-0.7s-0.7-1.2-0.7-2.1c0-0.9,0.2-1.7,0.7-2.2c0.5-0.5,1.1-0.8,2-0.8
			c0.6,0,1.1,0.1,1.6,0.3l-0.4,0.9c-0.5-0.2-0.9-0.3-1.2-0.3c-1,0-1.4,0.6-1.4,1.9c0,0.6,0.1,1.1,0.4,1.4c0.2,0.3,0.6,0.5,1.1,0.5
			c0.5,0,1-0.1,1.5-0.4v1c-0.2,0.1-0.4,0.2-0.7,0.3C37.6,24.1,37.3,24.1,37,24.1z"/>
		<path fill="#F7F0F0" d="M42.3,24.1c-0.9,0-1.5-0.3-2-0.8c-0.5-0.5-0.7-1.2-0.7-2.1c0-0.9,0.2-1.6,0.7-2.1c0.5-0.5,1.1-0.8,1.9-0.8
			c0.7,0,1.3,0.2,1.7,0.7s0.6,1.1,0.6,1.8v0.6h-3.7c0,0.5,0.2,1,0.4,1.2c0.3,0.3,0.7,0.4,1.2,0.4c0.3,0,0.6,0,0.9-0.1
			c0.3-0.1,0.6-0.2,0.9-0.3v1c-0.3,0.1-0.6,0.2-0.9,0.3C43,24.1,42.7,24.1,42.3,24.1z M42.1,19.2c-0.4,0-0.7,0.1-0.9,0.4
			c-0.2,0.2-0.4,0.6-0.4,1h2.5c0-0.5-0.1-0.8-0.3-1S42.4,19.2,42.1,19.2z"/>
		<path fill="#F7F0F0" d="M50.5,24h-1.2v-3.4c0-0.4-0.1-0.7-0.2-1c-0.2-0.2-0.4-0.3-0.8-0.3c-0.5,0-0.8,0.1-1,0.4
			C47.1,20,47,20.5,47,21.2V24h-1.2v-5.6h0.9l0.2,0.7h0.1c0.2-0.3,0.4-0.5,0.7-0.6c0.3-0.1,0.6-0.2,1-0.2c0.9,0,1.4,0.3,1.7,0.9h0.1
			c0.2-0.3,0.4-0.5,0.7-0.6c0.3-0.2,0.6-0.2,1-0.2c0.7,0,1.1,0.2,1.4,0.5s0.5,0.8,0.5,1.5V24h-1.2v-3.4c0-0.4-0.1-0.7-0.2-1
			s-0.4-0.3-0.8-0.3c-0.5,0-0.8,0.1-1,0.4c-0.2,0.3-0.3,0.7-0.3,1.3V24z"/>
		<path fill="#F7F0F0" d="M58.5,18.3c0.7,0,1.2,0.3,1.6,0.8c0.4,0.5,0.6,1.2,0.6,2.1c0,0.9-0.2,1.6-0.6,2.1s-0.9,0.8-1.6,0.8
			c-0.7,0-1.2-0.3-1.6-0.8h-0.1L56.5,24h-0.9v-7.8h1.2V18c0,0.1,0,0.3,0,0.6c0,0.3,0,0.4,0,0.5h0.1C57.2,18.6,57.7,18.3,58.5,18.3z
			 M58.2,19.3c-0.5,0-0.8,0.1-1,0.4c-0.2,0.3-0.3,0.7-0.3,1.4v0.1c0,0.7,0.1,1.2,0.3,1.5c0.2,0.3,0.6,0.5,1.1,0.5
			c0.4,0,0.7-0.2,1-0.5c0.2-0.3,0.3-0.8,0.3-1.4C59.5,19.9,59,19.3,58.2,19.3z"/>
		<path fill="#F7F0F0" d="M64.5,24.1c-0.9,0-1.5-0.3-2-0.8c-0.5-0.5-0.7-1.2-0.7-2.1c0-0.9,0.2-1.6,0.7-2.1c0.5-0.5,1.1-0.8,1.9-0.8
			c0.7,0,1.3,0.2,1.7,0.7s0.6,1.1,0.6,1.8v0.6h-3.7c0,0.5,0.2,1,0.4,1.2c0.3,0.3,0.7,0.4,1.2,0.4c0.3,0,0.6,0,0.9-0.1
			c0.3-0.1,0.6-0.2,0.9-0.3v1c-0.3,0.1-0.6,0.2-0.9,0.3C65.2,24.1,64.8,24.1,64.5,24.1z M64.2,19.2c-0.4,0-0.7,0.1-0.9,0.4
			c-0.2,0.2-0.4,0.6-0.4,1h2.5c0-0.5-0.1-0.8-0.3-1S64.6,19.2,64.2,19.2z"/>
		<path fill="#F7F0F0" d="M70.8,18.3c0.2,0,0.4,0,0.6,0.1l-0.1,1.1c-0.2,0-0.3-0.1-0.5-0.1c-0.5,0-0.9,0.2-1.1,0.5
			c-0.3,0.3-0.4,0.7-0.4,1.2V24H68v-5.6h0.9l0.2,1h0.1c0.2-0.3,0.4-0.6,0.7-0.8C70.1,18.4,70.4,18.3,70.8,18.3z"/>
	</g>
	<g>
		<path d="M34.2,54.2h-2.6V43.7c0-1.2,0-2.2,0.1-3c-0.2,0.2-0.4,0.4-0.6,0.6s-1.1,0.9-2.5,2l-1.3-1.6l4.8-3.7h2.2V54.2z"/>
		<path d="M41.4,54.2l6.4-13.8h-8.4V38h11.2v1.8l-6.4,14.3H41.4z"/>
		<path d="M55.2,45.5c0.4,0,0.7-0.1,1.1-0.2v1.1c-0.2,0.1-0.4,0.1-0.6,0.2c-0.3,0-0.5,0.1-0.8,0.1c-1.4,0-2.2-0.8-2.2-2.3v-3.8h-1
			V40l1-0.6l0.5-1.5h0.9v1.6h2v1.1h-2v3.8c0,0.4,0.1,0.6,0.3,0.8C54.6,45.4,54.9,45.5,55.2,45.5z"/>
		<path d="M64,46.6h-1.5v-4.4c0-0.5-0.1-1-0.3-1.2s-0.6-0.4-1.1-0.4c-0.6,0-1.1,0.2-1.4,0.6s-0.4,1-0.4,1.9v3.5h-1.5v-10h1.5v2.5
			c0,0.4,0,0.8-0.1,1.3h0.1c0.2-0.3,0.5-0.6,0.9-0.8c0.4-0.2,0.8-0.3,1.3-0.3c1.7,0,2.6,0.9,2.6,2.6V46.6z"/>
	</g>
	<g>
		<path fill="#787474" d="M32.1,61c0,0.5-0.2,1-0.6,1.3c-0.4,0.3-0.9,0.5-1.6,0.5s-1.2-0.1-1.7-0.3v-0.9c0.3,0.1,0.6,0.2,0.9,0.3
			c0.3,0.1,0.6,0.1,0.9,0.1c0.4,0,0.7-0.1,0.9-0.2c0.2-0.1,0.3-0.3,0.3-0.6c0-0.2-0.1-0.4-0.3-0.6c-0.2-0.2-0.5-0.3-1-0.6
			c-0.5-0.2-0.9-0.5-1.2-0.8c-0.2-0.3-0.3-0.6-0.3-1c0-0.5,0.2-0.9,0.5-1.2c0.4-0.3,0.8-0.4,1.4-0.4c0.6,0,1.1,0.1,1.7,0.4l-0.3,0.8
			c-0.5-0.2-1-0.3-1.4-0.3c-0.3,0-0.6,0.1-0.7,0.2c-0.2,0.1-0.2,0.3-0.2,0.5c0,0.2,0,0.3,0.1,0.4c0.1,0.1,0.2,0.2,0.3,0.3
			c0.1,0.1,0.4,0.2,0.8,0.4c0.4,0.2,0.8,0.4,1,0.5c0.2,0.2,0.4,0.3,0.5,0.5C32,60.5,32.1,60.7,32.1,61z"/>
		<path fill="#787474" d="M36,62.6L35.8,62h0c-0.2,0.3-0.4,0.5-0.7,0.6c-0.2,0.1-0.5,0.1-0.9,0.1c-0.4,0-0.8-0.1-1-0.4
			c-0.2-0.2-0.4-0.6-0.4-1c0-0.5,0.2-0.8,0.5-1.1c0.3-0.2,0.9-0.4,1.6-0.4l0.8,0v-0.2c0-0.3-0.1-0.5-0.2-0.6
			c-0.1-0.1-0.3-0.2-0.6-0.2c-0.2,0-0.5,0-0.7,0.1c-0.2,0.1-0.4,0.1-0.6,0.2l-0.3-0.7c0.2-0.1,0.5-0.2,0.8-0.3
			c0.3-0.1,0.6-0.1,0.8-0.1c0.6,0,1,0.1,1.3,0.4c0.3,0.3,0.4,0.6,0.4,1.2v3.1H36z M34.5,62c0.4,0,0.6-0.1,0.8-0.3
			c0.2-0.2,0.3-0.5,0.3-0.8v-0.4l-0.6,0c-0.5,0-0.8,0.1-1,0.2c-0.2,0.1-0.3,0.3-0.3,0.6c0,0.2,0.1,0.4,0.2,0.5
			C34.1,61.9,34.3,62,34.5,62z"/>
		<path fill="#787474" d="M39.7,61.9c0.2,0,0.5,0,0.7-0.1v0.7c-0.1,0-0.2,0.1-0.4,0.1c-0.2,0-0.3,0-0.5,0c-0.9,0-1.4-0.5-1.4-1.4
			v-2.4h-0.6v-0.4l0.7-0.4l0.3-1h0.6v1h1.3v0.7h-1.3v2.4c0,0.2,0.1,0.4,0.2,0.5C39.3,61.9,39.5,61.9,39.7,61.9z"/>
		<path fill="#787474" d="M44.5,62.6L44.4,62h0c-0.1,0.2-0.3,0.4-0.6,0.5c-0.2,0.1-0.5,0.2-0.8,0.2c-0.5,0-1-0.1-1.2-0.4
			c-0.3-0.3-0.4-0.7-0.4-1.2v-3h1v2.8c0,0.3,0.1,0.6,0.2,0.8c0.1,0.2,0.4,0.3,0.7,0.3c0.4,0,0.7-0.1,0.9-0.4s0.3-0.6,0.3-1.2v-2.3h1
			v4.5H44.5z"/>
		<path fill="#787474" d="M48.9,58c0.2,0,0.4,0,0.5,0L49.3,59c-0.1,0-0.3,0-0.4,0c-0.4,0-0.7,0.1-0.9,0.4c-0.2,0.3-0.4,0.6-0.4,1
			v2.4h-1v-4.5h0.8l0.1,0.8h0c0.2-0.3,0.3-0.5,0.6-0.6C48.4,58.1,48.7,58,48.9,58z"/>
		<path fill="#787474" d="M51.8,62.7c-0.6,0-1-0.2-1.3-0.6c-0.3-0.4-0.5-1-0.5-1.7c0-0.7,0.2-1.3,0.5-1.7c0.3-0.4,0.8-0.6,1.3-0.6
			c0.6,0,1,0.2,1.4,0.7h0c0-0.3-0.1-0.6-0.1-0.8v-1.7h1v6.4h-0.8L53.2,62h0C52.8,62.5,52.4,62.7,51.8,62.7z M52,61.9
			c0.4,0,0.7-0.1,0.9-0.3s0.3-0.6,0.3-1.1v-0.1c0-0.6-0.1-1-0.3-1.2c-0.2-0.2-0.5-0.4-0.9-0.4c-0.3,0-0.6,0.1-0.8,0.4
			c-0.2,0.3-0.3,0.7-0.3,1.2c0,0.5,0.1,0.9,0.3,1.1C51.4,61.8,51.7,61.9,52,61.9z"/>
		<path fill="#787474" d="M58.3,62.6L58.1,62h0c-0.2,0.3-0.4,0.5-0.7,0.6c-0.2,0.1-0.5,0.1-0.9,0.1c-0.4,0-0.8-0.1-1-0.4
			c-0.2-0.2-0.4-0.6-0.4-1c0-0.5,0.2-0.8,0.5-1.1c0.3-0.2,0.9-0.4,1.6-0.4l0.8,0v-0.2c0-0.3-0.1-0.5-0.2-0.6
			c-0.1-0.1-0.3-0.2-0.6-0.2c-0.2,0-0.5,0-0.7,0.1c-0.2,0.1-0.4,0.1-0.6,0.2l-0.3-0.7c0.2-0.1,0.5-0.2,0.8-0.3
			c0.3-0.1,0.6-0.1,0.8-0.1c0.6,0,1,0.1,1.3,0.4c0.3,0.3,0.4,0.6,0.4,1.2v3.1H58.3z M56.9,62c0.4,0,0.6-0.1,0.8-0.3
			c0.2-0.2,0.3-0.5,0.3-0.8v-0.4l-0.6,0c-0.5,0-0.8,0.1-1,0.2c-0.2,0.1-0.3,0.3-0.3,0.6c0,0.2,0.1,0.4,0.2,0.5
			C56.5,61.9,56.6,62,56.9,62z"/>
		<path fill="#787474" d="M59.7,58.1h1l0.9,2.6c0.1,0.4,0.2,0.7,0.3,1h0c0-0.2,0.1-0.3,0.1-0.5s0.4-1.2,1-3.1h1l-1.9,5.1
			c-0.4,0.9-0.9,1.4-1.8,1.4c-0.2,0-0.4,0-0.6-0.1v-0.8c0.1,0,0.3,0,0.5,0c0.5,0,0.8-0.3,1-0.8l0.2-0.4L59.7,58.1z"/>
	</g>
</g>
<g>
</g>
<g>
</g>
<g>
</g>
<g>
</g>
<g>
</g>
<g>
</g>
<g>
</g>
<g>
</g>
<g>
</g>
<g>
</g>
<g>
</g>
<g>
</g>
<g>
</g>
<g>
</g>
<g>
</g>
</svg>
