<?xml version="1.0" encoding="utf-8"?>
<!-- Generator: Adobe Illustrator 17.0.0, SVG Export Plug-In . SVG Version: 6.00 Build 0)  -->
<!DOCTYPE svg PUBLIC "-//W3C//DTD SVG 1.1//EN" "http://www.w3.org/Graphics/SVG/1.1/DTD/svg11.dtd">
<svg version="1.1" id="Layer_1" xmlns="http://www.w3.org/2000/svg" xmlns:xlink="http://www.w3.org/1999/xlink" x="0px" y="0px"
	 width="336px" height="261px" viewBox="0 0 336 261" enable-background="new 0 0 336 261" xml:space="preserve">
<path fill="none" stroke="#C65C54" stroke-width="12.0305" stroke-miterlimit="10" d="M188.4,108.5c23.4,27.5,20.1,68.8-7.4,92.3
	s-68.8,20.1-92.3-7.4s-20.1-68.8,7.4-92.3c7.8-6.6,16.6-11.1,25.9-13.5"/>
<path fill="none" stroke="#82CFA3" stroke-width="12.0305" stroke-miterlimit="10" d="M122,87.5c23.5-6.1,49.6,1.2,66.4,20.9"/>
<g>
	<path fill="#C65C54" d="M234.7,206c0-4.8,1-8.4,3-10.7s5.1-3.5,9.1-3.5c1.4,0,2.5,0.1,3.3,0.2v4.1c-1-0.2-2-0.3-2.9-0.3
		c-1.8,0-3.2,0.3-4.3,0.8c-1.1,0.5-1.9,1.3-2.5,2.4c-0.6,1-0.9,2.5-1,4.4h0.2c1.1-1.9,2.9-2.8,5.3-2.8c2.2,0,3.9,0.7,5.1,2
		c1.2,1.4,1.8,3.2,1.8,5.6c0,2.6-0.7,4.6-2.2,6.2c-1.5,1.5-3.5,2.3-6.1,2.3c-1.8,0-3.4-0.4-4.7-1.2s-2.4-2-3.1-3.6
		C235.1,210.2,234.7,208.3,234.7,206z M243.5,212.6c1.1,0,1.9-0.4,2.5-1.1c0.6-0.7,0.9-1.8,0.9-3.1c0-1.2-0.3-2.1-0.8-2.8
		s-1.4-1-2.5-1c-1,0-1.9,0.3-2.7,1s-1.1,1.5-1.1,2.4c0,1.3,0.3,2.4,1,3.3S242.4,212.6,243.5,212.6z"/>
	<path fill="#C65C54" d="M271.8,211.3h-2.9v5h-5v-5h-10.4v-3.6l10.7-15.7h4.7v15.3h2.9V211.3z M263.9,207.3v-4.1c0-0.7,0-1.7,0.1-3
		c0.1-1.3,0.1-2.1,0.1-2.3H264c-0.4,0.9-0.9,1.8-1.5,2.7l-4.5,6.7H263.9z"/>
	<path fill="#C65C54" d="M284.9,199.3c0,2.5-0.5,4.5-1.5,5.7c-1,1.3-2.4,1.9-4.3,1.9c-1.8,0-3.2-0.7-4.2-2c-1-1.3-1.5-3.2-1.5-5.7
		c0-5.1,1.9-7.6,5.7-7.6c1.9,0,3.3,0.7,4.3,2C284.4,195,284.9,196.8,284.9,199.3z M277.6,199.3c0,1.4,0.1,2.5,0.4,3.1
		c0.2,0.7,0.7,1,1.2,1c1.1,0,1.6-1.4,1.6-4.2c0-2.8-0.5-4.2-1.6-4.2c-0.6,0-1,0.3-1.2,1C277.7,196.9,277.6,197.9,277.6,199.3z
		 M296.4,192l-13.5,24.3h-4l13.5-24.3H296.4z M302,209c0,2.5-0.5,4.4-1.5,5.7s-2.4,1.9-4.3,1.9c-1.8,0-3.2-0.7-4.2-2
		s-1.5-3.2-1.5-5.7c0-5.1,1.9-7.6,5.7-7.6c1.9,0,3.3,0.7,4.3,2S302,206.5,302,209z M294.6,209c0,1.4,0.1,2.5,0.4,3.1
		c0.2,0.7,0.7,1,1.2,1c1.1,0,1.6-1.4,1.6-4.2c0-2.8-0.5-4.2-1.6-4.2c-0.6,0-1,0.3-1.2,1C294.7,206.6,294.6,207.6,294.6,209z"/>
</g>
<g>
	<g>
		
			<line fill="none" stroke="#C65C54" stroke-linecap="round" stroke-linejoin="round" x1="188.4" y1="193.3" x2="191.1" y2="196.3"/>
		
			<line fill="none" stroke="#C65C54" stroke-linecap="round" stroke-linejoin="round" stroke-dasharray="6.8612,6.8612" x1="195.8" y1="201.3" x2="212" y2="219"/>
		<line fill="none" stroke="#C65C54" stroke-linecap="round" stroke-linejoin="round" x1="214.3" y1="221.6" x2="217" y2="224.5"/>
	</g>
</g>
<g>
	<g>
		<line fill="none" stroke="#C65C54" stroke-linecap="round" stroke-linejoin="round" x1="217" y1="224.5" x2="221" y2="224.5"/>
		
			<line fill="none" stroke="#C65C54" stroke-linecap="round" stroke-linejoin="round" stroke-dasharray="8,8" x1="229" y1="224.5" x2="303" y2="224.5"/>
		<line fill="none" stroke="#C65C54" stroke-linecap="round" stroke-linejoin="round" x1="307" y1="224.5" x2="311" y2="224.5"/>
	</g>
</g>
<g>
	<path fill="#C65C54" d="M239.6,235.8c0,0.8-0.3,1.4-0.8,1.8c-0.6,0.4-1.3,0.7-2.3,0.7c-0.9,0-1.7-0.2-2.4-0.5l0-1.7
		c0.6,0.3,1.1,0.4,1.5,0.5c0.4,0.1,0.8,0.2,1.1,0.2c0.4,0,0.7-0.1,0.9-0.2c0.2-0.2,0.3-0.4,0.3-0.7c0-0.2,0-0.3-0.1-0.4
		c-0.1-0.1-0.2-0.3-0.4-0.4c-0.2-0.1-0.6-0.3-1.1-0.6c-0.5-0.2-0.9-0.5-1.2-0.7c-0.3-0.2-0.5-0.5-0.6-0.8c-0.2-0.3-0.2-0.7-0.2-1.1
		c0-0.8,0.3-1.4,0.8-1.8c0.5-0.4,1.2-0.7,2.1-0.7c0.4,0,0.9,0,1.3,0.2c0.4,0.1,0.8,0.3,1.3,0.4l-0.6,1.4c-0.5-0.2-0.8-0.3-1.1-0.4
		c-0.3-0.1-0.6-0.1-0.9-0.1c-0.3,0-0.6,0.1-0.8,0.2c-0.2,0.2-0.3,0.4-0.3,0.6c0,0.2,0,0.3,0.1,0.4c0.1,0.1,0.2,0.2,0.4,0.3
		c0.2,0.1,0.5,0.3,1.2,0.6c0.8,0.4,1.4,0.8,1.7,1.1S239.6,235.2,239.6,235.8z"/>
	<path fill="#C65C54" d="M247.1,238.1l-1.8,0l0-3.8c0-0.9-0.4-1.4-1.1-1.4c-0.5,0-0.9,0.2-1.1,0.5c-0.2,0.3-0.3,0.9-0.3,1.7l0,3.1
		l-1.8,0l0-9.1l1.8,0l0,1.9c0,0.1,0,0.5,0,1l0,0.5l0.1,0c0.4-0.6,1-1,1.9-1c0.8,0,1.4,0.2,1.8,0.6c0.4,0.4,0.6,1,0.6,1.8
		L247.1,238.1z"/>
	<path fill="#C65C54" d="M254.9,234.8c0,1.1-0.3,1.9-0.8,2.5s-1.3,0.9-2.3,0.9c-0.6,0-1.2-0.1-1.7-0.4s-0.9-0.7-1.1-1.2
		s-0.4-1.1-0.4-1.8c0-1.1,0.3-1.9,0.8-2.5c0.6-0.6,1.3-0.9,2.4-0.9c0.6,0,1.2,0.1,1.7,0.4s0.9,0.7,1.1,1.2S254.9,234.1,254.9,234.8z
		 M250.3,234.8c0,0.6,0.1,1.1,0.3,1.5c0.2,0.3,0.6,0.5,1,0.5c0.5,0,0.8-0.2,1-0.5c0.2-0.3,0.3-0.8,0.3-1.5c0-0.6-0.1-1.1-0.3-1.5
		c-0.2-0.3-0.6-0.5-1-0.5c-0.5,0-0.8,0.2-1,0.5C250.4,233.7,250.3,234.2,250.3,234.8z"/>
	<path fill="#C65C54" d="M259.9,238.2c-0.8,0-1.4-0.3-1.8-0.8H258c0.1,0.5,0.1,0.9,0.1,0.9l0,2.7l-1.8,0l0-9.4l1.5,0l0.3,0.8h0.1
		c0.4-0.7,1-1,1.9-1c0.8,0,1.4,0.3,1.8,0.9c0.4,0.6,0.7,1.4,0.7,2.5c0,0.7-0.1,1.3-0.3,1.8s-0.5,0.9-0.9,1.2
		C260.9,238.1,260.5,238.2,259.9,238.2z M259.4,232.8c-0.4,0-0.8,0.1-1,0.4c-0.2,0.3-0.3,0.7-0.3,1.3l0,0.2c0,0.7,0.1,1.2,0.3,1.5
		c0.2,0.3,0.5,0.5,1,0.5c0.8,0,1.2-0.7,1.2-2c0-0.6-0.1-1.1-0.3-1.4C260.1,233,259.8,232.8,259.4,232.8z"/>
	<path fill="#C65C54" d="M270.7,232.8l-1.5,0l0,5.2l-1.8,0l0-5.2l-1,0l0-0.9l1-0.5l0-0.5c0-0.7,0.2-1.3,0.5-1.6
		c0.4-0.3,1-0.5,1.8-0.5c0.6,0,1.2,0.1,1.6,0.3l-0.5,1.3c-0.4-0.1-0.7-0.2-1-0.2c-0.3,0-0.4,0.1-0.6,0.2c-0.1,0.2-0.2,0.3-0.2,0.6
		l0,0.4l1.5,0L270.7,232.8z"/>
	<path fill="#C65C54" d="M277.6,234.7c0,1.1-0.3,1.9-0.8,2.5s-1.3,0.9-2.3,0.9c-0.6,0-1.2-0.1-1.7-0.4c-0.5-0.3-0.9-0.7-1.1-1.2
		s-0.4-1.1-0.4-1.8c0-1.1,0.3-1.9,0.8-2.5c0.6-0.6,1.3-0.9,2.4-0.9c0.6,0,1.2,0.1,1.7,0.4c0.5,0.3,0.9,0.7,1.1,1.2
		S277.6,234,277.6,234.7z M273.1,234.7c0,0.6,0.1,1.1,0.3,1.5c0.2,0.3,0.6,0.5,1,0.5c0.5,0,0.8-0.2,1-0.5c0.2-0.3,0.3-0.8,0.3-1.5
		c0-0.6-0.1-1.1-0.3-1.5c-0.2-0.3-0.6-0.5-1-0.5c-0.5,0-0.8,0.2-1,0.5C273.2,233.6,273.1,234.1,273.1,234.7z"/>
	<path fill="#C65C54" d="M282.8,231.3c0.2,0,0.4,0,0.6,0.1l-0.1,1.7c-0.1,0-0.3-0.1-0.5-0.1c-0.6,0-1,0.2-1.3,0.4
		c-0.3,0.3-0.5,0.7-0.5,1.2l0,3.3l-1.8,0l0-6.6l1.4,0l0.3,1.1h0.1c0.2-0.4,0.5-0.7,0.8-0.9C282,231.4,282.4,231.3,282.8,231.3z"/>
	<path fill="#C65C54" d="M291.3,238.1c-0.8,0-1.4-0.3-1.8-0.8h-0.1c0.1,0.5,0.1,0.9,0.1,0.9l0,2.7l-1.8,0l0-9.4l1.5,0l0.3,0.8h0.1
		c0.4-0.7,1-1,1.9-1c0.8,0,1.4,0.3,1.8,0.9c0.4,0.6,0.7,1.4,0.7,2.5c0,0.7-0.1,1.3-0.3,1.8s-0.5,0.9-0.9,1.2
		C292.3,237.9,291.8,238.1,291.3,238.1z M290.8,232.7c-0.4,0-0.8,0.1-1,0.4c-0.2,0.3-0.3,0.7-0.3,1.3l0,0.2c0,0.7,0.1,1.2,0.3,1.5
		c0.2,0.3,0.5,0.5,1,0.5c0.8,0,1.2-0.7,1.2-2c0-0.6-0.1-1.1-0.3-1.4C291.5,232.9,291.2,232.7,290.8,232.7z"/>
	<path fill="#C65C54" d="M298.3,238.1c-1.1,0-1.9-0.3-2.5-0.9c-0.6-0.6-0.9-1.4-0.9-2.5c0-1.1,0.3-1.9,0.8-2.5
		c0.5-0.6,1.3-0.9,2.3-0.9c0.9,0,1.6,0.3,2.2,0.8s0.8,1.3,0.8,2.2l0,0.9l-4.2,0c0,0.5,0.2,0.9,0.5,1.2c0.3,0.3,0.7,0.4,1.2,0.4
		c0.4,0,0.8,0,1.1-0.1c0.4-0.1,0.7-0.2,1.1-0.4l0,1.4c-0.3,0.2-0.6,0.3-1,0.4S298.8,238,298.3,238.1z M298,232.5
		c-0.4,0-0.7,0.1-0.9,0.4c-0.2,0.2-0.3,0.6-0.4,1l2.5,0c0-0.4-0.1-0.8-0.3-1C298.7,232.6,298.4,232.5,298,232.5z"/>
	<path fill="#C65C54" d="M308.3,234.6c0,1.1-0.3,1.9-0.8,2.5c-0.6,0.6-1.3,0.9-2.3,0.9c-0.6,0-1.2-0.1-1.7-0.4s-0.9-0.7-1.1-1.2
		s-0.4-1.1-0.4-1.8c0-1.1,0.3-1.9,0.8-2.5c0.6-0.6,1.3-0.9,2.4-0.9c0.6,0,1.2,0.1,1.7,0.4s0.9,0.7,1.1,1.2S308.3,233.9,308.3,234.6z
		 M303.8,234.6c0,0.6,0.1,1.1,0.3,1.5c0.2,0.3,0.6,0.5,1,0.5c0.5,0,0.8-0.2,1-0.5c0.2-0.3,0.3-0.8,0.3-1.5c0-0.6-0.1-1.1-0.3-1.5
		c-0.2-0.3-0.6-0.5-1-0.5c-0.5,0-0.8,0.2-1,0.5C303.9,233.5,303.8,234,303.8,234.6z"/>
	<path fill="#C65C54" d="M313.4,238c-0.8,0-1.4-0.3-1.8-0.8h-0.1c0.1,0.5,0.1,0.9,0.1,0.9l0,2.7l-1.8,0l0-9.4l1.5,0l0.3,0.8h0.1
		c0.4-0.7,1-1,1.9-1c0.8,0,1.4,0.3,1.8,0.9c0.4,0.6,0.7,1.4,0.7,2.5c0,0.7-0.1,1.3-0.3,1.8c-0.2,0.5-0.5,0.9-0.9,1.2
		C314.4,237.9,313.9,238,313.4,238z M312.9,232.6c-0.4,0-0.8,0.1-1,0.4c-0.2,0.3-0.3,0.7-0.3,1.3l0,0.2c0,0.7,0.1,1.2,0.3,1.5
		c0.2,0.3,0.5,0.5,1,0.5c0.8,0,1.2-0.7,1.2-2c0-0.6-0.1-1.1-0.3-1.4C313.6,232.8,313.3,232.6,312.9,232.6z"/>
	<path fill="#C65C54" d="M319.2,237.9l-1.8,0l0-9.1l1.8,0L319.2,237.9z"/>
	<path fill="#C65C54" d="M324,238c-1.1,0-1.9-0.3-2.5-0.9c-0.6-0.6-0.9-1.4-0.9-2.5c0-1.1,0.3-1.9,0.8-2.5c0.5-0.6,1.3-0.9,2.3-0.9
		c0.9,0,1.6,0.3,2.2,0.8c0.5,0.5,0.8,1.3,0.8,2.2l0,0.9l-4.2,0c0,0.5,0.2,0.9,0.5,1.2c0.3,0.3,0.7,0.4,1.2,0.4c0.4,0,0.8,0,1.1-0.1
		c0.4-0.1,0.7-0.2,1.1-0.4l0,1.4c-0.3,0.2-0.6,0.3-1,0.4C325,237.9,324.5,238,324,238z M323.8,232.4c-0.4,0-0.7,0.1-0.9,0.4
		c-0.2,0.2-0.3,0.6-0.4,1l2.5,0c0-0.4-0.1-0.8-0.3-1C324.4,232.6,324.1,232.4,323.8,232.4z"/>
	<path fill="#C65C54" d="M238.6,252.6l-0.3-0.9h0c-0.3,0.4-0.6,0.6-0.9,0.8c-0.3,0.1-0.7,0.2-1.2,0.2c-0.6,0-1.1-0.2-1.5-0.5
		s-0.5-0.9-0.5-1.5c0-0.7,0.2-1.2,0.7-1.5c0.5-0.3,1.2-0.5,2.2-0.6l1.1,0l0-0.3c0-0.7-0.3-1-1-1c-0.5,0-1.1,0.2-1.8,0.5l-0.6-1.2
		c0.8-0.4,1.6-0.6,2.5-0.6c0.9,0,1.6,0.2,2,0.6c0.5,0.4,0.7,1,0.7,1.7l0,4.4L238.6,252.6z M238.1,249.5l-0.7,0
		c-0.5,0-0.9,0.1-1.2,0.3c-0.3,0.2-0.4,0.4-0.4,0.8c0,0.5,0.3,0.8,0.9,0.8c0.4,0,0.7-0.1,1-0.4c0.2-0.2,0.4-0.6,0.4-1L238.1,249.5z"
		/>
	<path fill="#C65C54" d="M247.4,246l0,0.9l-1,0.3c0.2,0.3,0.3,0.6,0.3,1c0,0.7-0.2,1.3-0.7,1.6c-0.5,0.4-1.2,0.6-2,0.6l-0.3,0
		l-0.3,0c-0.2,0.1-0.3,0.3-0.3,0.5c0,0.3,0.3,0.4,1,0.4l1.1,0c0.7,0,1.3,0.1,1.6,0.5c0.4,0.3,0.6,0.8,0.6,1.4c0,0.8-0.3,1.4-1,1.8
		c-0.6,0.4-1.6,0.6-2.7,0.6c-0.9,0-1.6-0.2-2.1-0.5c-0.5-0.3-0.7-0.8-0.7-1.3c0-0.4,0.1-0.7,0.4-1s0.6-0.5,1.1-0.6
		c-0.2-0.1-0.3-0.2-0.5-0.4c-0.1-0.2-0.2-0.4-0.2-0.6c0-0.2,0.1-0.5,0.2-0.6c0.1-0.2,0.4-0.3,0.6-0.5c-0.3-0.1-0.6-0.4-0.8-0.7
		c-0.2-0.3-0.3-0.7-0.3-1.2c0-0.7,0.2-1.3,0.7-1.7c0.5-0.4,1.1-0.6,2-0.6c0.2,0,0.4,0,0.7,0c0.3,0,0.4,0.1,0.5,0.1L247.4,246z
		 M242.4,253.5c0,0.2,0.1,0.4,0.4,0.6s0.6,0.2,1,0.2c0.6,0,1.1-0.1,1.5-0.3c0.4-0.2,0.5-0.4,0.5-0.7c0-0.2-0.1-0.4-0.3-0.5
		c-0.2-0.1-0.5-0.1-1-0.1l-0.9,0c-0.3,0-0.6,0.1-0.8,0.2C242.5,253,242.4,253.2,242.4,253.5z M243,248.1c0,0.4,0.1,0.6,0.2,0.8
		c0.2,0.2,0.4,0.3,0.7,0.3c0.3,0,0.6-0.1,0.7-0.3s0.2-0.5,0.2-0.8c0-0.8-0.3-1.2-1-1.2C243.3,246.9,243,247.3,243,248.1z"/>
	<path fill="#C65C54" d="M251.5,252.6c-1.1,0-1.9-0.3-2.5-0.9c-0.6-0.6-0.9-1.4-0.9-2.5c0-1.1,0.3-1.9,0.8-2.5s1.3-0.9,2.3-0.9
		c0.9,0,1.6,0.3,2.2,0.8s0.8,1.3,0.8,2.2l0,0.9l-4.2,0c0,0.5,0.2,0.9,0.5,1.2c0.3,0.3,0.7,0.4,1.2,0.4c0.4,0,0.8,0,1.1-0.1
		c0.4-0.1,0.7-0.2,1.1-0.4l0,1.4c-0.3,0.2-0.6,0.3-1,0.4C252.4,252.6,252,252.6,251.5,252.6z M251.2,247.1c-0.4,0-0.7,0.1-0.9,0.4
		s-0.3,0.6-0.4,1l2.5,0c0-0.4-0.1-0.8-0.3-1S251.6,247.1,251.2,247.1z"/>
	<path fill="#C65C54" d="M260.2,250.5c0,0.7-0.2,1.2-0.7,1.5c-0.5,0.4-1.2,0.5-2.1,0.5c-0.5,0-0.9,0-1.2-0.1
		c-0.3-0.1-0.7-0.2-0.9-0.3l0-1.5c0.3,0.2,0.7,0.3,1.1,0.4c0.4,0.1,0.8,0.2,1.1,0.2c0.6,0,1-0.2,1-0.6c0-0.1,0-0.3-0.1-0.3
		c-0.1-0.1-0.2-0.2-0.4-0.3s-0.5-0.2-0.8-0.4c-0.5-0.2-0.9-0.4-1.1-0.6c-0.2-0.2-0.4-0.4-0.5-0.6c-0.1-0.2-0.2-0.5-0.2-0.9
		c0-0.6,0.2-1,0.7-1.4c0.4-0.3,1.1-0.5,1.9-0.5c0.8,0,1.6,0.2,2.3,0.5l-0.5,1.3c-0.3-0.1-0.6-0.3-0.9-0.3c-0.3-0.1-0.6-0.1-0.9-0.1
		c-0.5,0-0.8,0.1-0.8,0.4c0,0.2,0.1,0.3,0.3,0.4c0.2,0.1,0.5,0.3,1.1,0.5c0.5,0.2,0.9,0.4,1.1,0.6c0.2,0.2,0.4,0.4,0.5,0.6
		C260.1,249.9,260.2,250.2,260.2,250.5z"/>
	<path fill="#C65C54" d="M268.7,252.4l-1.8,0l0-5l0-0.8l0-0.9c-0.3,0.3-0.5,0.5-0.6,0.6l-1,0.8l-0.9-1.1l2.8-2.2l1.5,0L268.7,252.4z
		"/>
	<path fill="#C65C54" d="M277.1,252.4l-6,0l0-1.3l2.1-2.2c0.6-0.7,1-1.1,1.2-1.4c0.2-0.3,0.3-0.5,0.4-0.7c0.1-0.2,0.1-0.4,0.1-0.7
		c0-0.3-0.1-0.6-0.3-0.8c-0.2-0.2-0.4-0.2-0.8-0.2c-0.3,0-0.7,0.1-1,0.2s-0.6,0.4-1,0.7l-1-1.2c0.4-0.4,0.8-0.6,1-0.8
		s0.6-0.3,0.9-0.3c0.3-0.1,0.7-0.1,1.1-0.1c0.5,0,1,0.1,1.4,0.3c0.4,0.2,0.7,0.5,1,0.8c0.2,0.4,0.3,0.8,0.3,1.2
		c0,0.4-0.1,0.8-0.2,1.1c-0.1,0.3-0.4,0.7-0.6,1.1c-0.3,0.4-0.8,0.9-1.5,1.6l-1.1,1l0,0.1l3.7,0L277.1,252.4z"/>
	<path fill="#C65C54" d="M277.8,249.9l0-1.5l3.1,0l0,1.5L277.8,249.9z"/>
	<path fill="#C65C54" d="M286.3,252.4l-1.8,0l0-5l0-0.8l0-0.9c-0.3,0.3-0.5,0.5-0.6,0.6l-1,0.8L282,246l2.8-2.2l1.5,0L286.3,252.4z"
		/>
	<path fill="#C65C54" d="M291.5,243.7c0.8,0,1.5,0.2,2,0.6s0.8,0.9,0.8,1.5c0,0.4-0.1,0.8-0.4,1.2c-0.2,0.3-0.6,0.6-1.2,0.9
		c0.6,0.3,1.1,0.7,1.4,1.1s0.4,0.8,0.4,1.2c0,0.7-0.3,1.3-0.8,1.7c-0.5,0.4-1.3,0.6-2.2,0.7c-0.9,0-1.7-0.2-2.2-0.6s-0.8-1-0.8-1.7
		c0-0.5,0.1-0.9,0.4-1.3s0.7-0.7,1.2-1c-0.5-0.3-0.8-0.6-1.1-1c-0.2-0.4-0.3-0.7-0.3-1.2c0-0.6,0.2-1.1,0.8-1.5
		S290.7,243.7,291.5,243.7z M290.2,250.1c0,0.3,0.1,0.6,0.4,0.8c0.2,0.2,0.6,0.3,1,0.3c0.4,0,0.8-0.1,1-0.3c0.2-0.2,0.3-0.4,0.3-0.8
		c0-0.3-0.1-0.5-0.3-0.7c-0.2-0.2-0.6-0.5-1.1-0.7C290.6,249,290.2,249.5,290.2,250.1z M291.5,245c-0.3,0-0.6,0.1-0.7,0.2
		c-0.2,0.2-0.3,0.4-0.3,0.6c0,0.2,0.1,0.4,0.2,0.6c0.2,0.2,0.4,0.4,0.8,0.6c0.4-0.2,0.6-0.4,0.8-0.6c0.2-0.2,0.2-0.4,0.2-0.7
		c0-0.3-0.1-0.5-0.3-0.6S291.8,245,291.5,245z"/>
</g>
<path fill="none" stroke="#45825F" stroke-width="12.0305" stroke-miterlimit="10" d="M188.5,108.5c15.6,18.6,20.2,45.3,9.5,68.9"/>
<g>
	<path fill="#82CFA3" d="M25.5,34.3h-5.1V20.3l0-2.3l0.1-2.5c-0.9,0.9-1.4,1.4-1.8,1.7l-2.8,2.2l-2.5-3.1l7.8-6.2h4.2V34.3z"/>
	<path fill="#82CFA3" d="M40.6,9.7c2.3,0,4.2,0.5,5.6,1.6c1.4,1.1,2.1,2.5,2.1,4.3c0,1.2-0.3,2.3-1,3.3c-0.7,1-1.8,1.8-3.3,2.6
		c1.8,1,3.1,2,3.9,3c0.8,1.1,1.2,2.2,1.2,3.5c0,2-0.8,3.6-2.3,4.8s-3.6,1.8-6.2,1.8c-2.7,0-4.7-0.6-6.3-1.7
		c-1.5-1.1-2.3-2.7-2.3-4.8c0-1.4,0.4-2.6,1.1-3.7c0.7-1.1,1.9-2,3.5-2.8c-1.4-0.9-2.4-1.8-3-2.8c-0.6-1-0.9-2.1-0.9-3.3
		c0-1.7,0.7-3.1,2.2-4.2C36.4,10.3,38.3,9.7,40.6,9.7z M36.8,27.9c0,1,0.3,1.7,1,2.2c0.7,0.5,1.6,0.8,2.7,0.8c1.3,0,2.2-0.3,2.9-0.8
		c0.6-0.5,0.9-1.3,0.9-2.2c0-0.7-0.3-1.4-0.9-2.1c-0.6-0.6-1.6-1.3-3-2.1C38,24.8,36.8,26.2,36.8,27.9z M40.5,13.5
		c-0.9,0-1.6,0.2-2.1,0.7c-0.5,0.4-0.8,1-0.8,1.8c0,0.7,0.2,1.3,0.6,1.8c0.4,0.5,1.2,1.1,2.3,1.6c1.1-0.5,1.8-1,2.3-1.6
		c0.4-0.5,0.6-1.1,0.6-1.8c0-0.8-0.3-1.4-0.8-1.8C42.1,13.7,41.4,13.5,40.5,13.5z"/>
	<path fill="#82CFA3" d="M62.9,17.3c0,2.5-0.5,4.5-1.5,5.7c-1,1.3-2.4,1.9-4.3,1.9c-1.8,0-3.2-0.7-4.2-2c-1-1.3-1.5-3.2-1.5-5.7
		c0-5.1,1.9-7.6,5.7-7.6c1.9,0,3.3,0.7,4.3,2C62.4,13,62.9,14.8,62.9,17.3z M55.5,17.3c0,1.4,0.1,2.5,0.4,3.1c0.2,0.7,0.7,1,1.2,1
		c1.1,0,1.6-1.4,1.6-4.2c0-2.8-0.5-4.2-1.6-4.2c-0.6,0-1,0.3-1.2,1C55.6,14.9,55.5,15.9,55.5,17.3z M74.3,10L60.8,34.3h-4L70.3,10
		H74.3z M79.9,27c0,2.5-0.5,4.4-1.5,5.7s-2.4,1.9-4.3,1.9c-1.8,0-3.2-0.7-4.2-2s-1.5-3.2-1.5-5.7c0-5.1,1.9-7.6,5.7-7.6
		c1.9,0,3.3,0.7,4.3,2S79.9,24.6,79.9,27z M72.5,27c0,1.4,0.1,2.5,0.4,3.1c0.2,0.7,0.7,1,1.2,1c1.1,0,1.6-1.4,1.6-4.2
		c0-2.8-0.5-4.2-1.6-4.2c-0.6,0-1,0.3-1.2,1C72.6,24.6,72.5,25.6,72.5,27z"/>
</g>
<g>
	<g>
		<line fill="none" stroke="#82CFA3" stroke-linecap="round" stroke-linejoin="round" x1="134" y1="77.5" x2="131.3" y2="74.6"/>
		
			<line fill="none" stroke="#82CFA3" stroke-linecap="round" stroke-linejoin="round" stroke-dasharray="6.8612,6.8612" x1="126.7" y1="69.5" x2="110.4" y2="51.8"/>
		<line fill="none" stroke="#82CFA3" stroke-linecap="round" stroke-linejoin="round" x1="108.1" y1="49.3" x2="105.4" y2="46.3"/>
	</g>
</g>
<g>
	<g>
		<line fill="none" stroke="#82CFA3" stroke-linecap="round" stroke-linejoin="round" x1="105" y1="46.5" x2="101" y2="46.5"/>
		
			<line fill="none" stroke="#82CFA3" stroke-linecap="round" stroke-linejoin="round" stroke-dasharray="8,8" x1="94" y1="46.5" x2="19" y2="46.5"/>
		<line fill="none" stroke="#82CFA3" stroke-linecap="round" stroke-linejoin="round" x1="15" y1="46.5" x2="11" y2="46.5"/>
	</g>
</g>
<g>
	<path fill="#82CFA3" d="M17.5,59.5c0,0.8-0.3,1.4-0.8,1.8c-0.6,0.4-1.3,0.7-2.3,0.7c-0.9,0-1.7-0.2-2.4-0.5l0-1.7
		c0.6,0.3,1.1,0.4,1.5,0.5c0.4,0.1,0.8,0.2,1.1,0.2c0.4,0,0.7-0.1,0.9-0.2c0.2-0.2,0.3-0.4,0.3-0.7c0-0.2,0-0.3-0.1-0.4
		c-0.1-0.1-0.2-0.3-0.4-0.4c-0.2-0.1-0.6-0.3-1.1-0.6c-0.5-0.2-0.9-0.5-1.2-0.7c-0.3-0.2-0.5-0.5-0.6-0.8c-0.2-0.3-0.2-0.7-0.2-1.1
		c0-0.8,0.3-1.4,0.8-1.8c0.5-0.4,1.2-0.7,2.1-0.7c0.4,0,0.9,0,1.3,0.2c0.4,0.1,0.8,0.3,1.3,0.4l-0.6,1.4c-0.5-0.2-0.8-0.3-1.1-0.4
		c-0.3-0.1-0.6-0.1-0.9-0.1c-0.3,0-0.6,0.1-0.8,0.2c-0.2,0.2-0.3,0.4-0.3,0.6c0,0.2,0,0.3,0.1,0.4c0.1,0.1,0.2,0.2,0.4,0.3
		c0.2,0.1,0.5,0.3,1.2,0.6c0.8,0.4,1.4,0.8,1.7,1.1S17.5,58.9,17.5,59.5z"/>
	<path fill="#82CFA3" d="M25,61.9l-1.8,0l0-3.8c0-0.9-0.4-1.4-1.1-1.4c-0.5,0-0.9,0.2-1.1,0.5c-0.2,0.3-0.3,0.9-0.3,1.7l0,3.1
		l-1.8,0l0-9.1l1.8,0l0,1.9c0,0.1,0,0.5,0,1l0,0.5l0.1,0c0.4-0.6,1-1,1.9-1c0.8,0,1.4,0.2,1.8,0.6c0.4,0.4,0.6,1,0.6,1.8L25,61.9z"
		/>
	<path fill="#82CFA3" d="M32.8,58.5c0,1.1-0.3,1.9-0.8,2.5s-1.3,0.9-2.3,0.9c-0.6,0-1.2-0.1-1.7-0.4s-0.9-0.7-1.1-1.2
		s-0.4-1.1-0.4-1.8c0-1.1,0.3-1.9,0.8-2.5c0.6-0.6,1.3-0.9,2.4-0.9c0.6,0,1.2,0.1,1.7,0.4s0.9,0.7,1.1,1.2S32.8,57.8,32.8,58.5z
		 M28.3,58.6c0,0.6,0.1,1.1,0.3,1.5c0.2,0.3,0.6,0.5,1,0.5c0.5,0,0.8-0.2,1-0.5c0.2-0.3,0.3-0.8,0.3-1.5c0-0.6-0.1-1.1-0.3-1.5
		c-0.2-0.3-0.6-0.5-1-0.5c-0.5,0-0.8,0.2-1,0.5C28.4,57.4,28.3,57.9,28.3,58.6z"/>
	<path fill="#82CFA3" d="M37.9,61.9c-0.8,0-1.4-0.3-1.8-0.8H36c0.1,0.5,0.1,0.9,0.1,0.9l0,2.7l-1.8,0l0-9.4l1.5,0l0.3,0.8H36
		c0.4-0.7,1-1,1.9-1c0.8,0,1.4,0.3,1.8,0.9c0.4,0.6,0.7,1.4,0.7,2.5c0,0.7-0.1,1.3-0.3,1.8s-0.5,0.9-0.9,1.2
		C38.8,61.8,38.4,61.9,37.9,61.9z M37.3,56.6c-0.4,0-0.8,0.1-1,0.4c-0.2,0.3-0.3,0.7-0.3,1.3l0,0.2c0,0.7,0.1,1.2,0.3,1.5
		c0.2,0.3,0.5,0.5,1,0.5c0.8,0,1.2-0.7,1.2-2c0-0.6-0.1-1.1-0.3-1.4C38.1,56.7,37.8,56.6,37.3,56.6z"/>
	<path fill="#82CFA3" d="M48.6,56.6l-1.5,0l0,5.2l-1.8,0l0-5.2l-1,0l0-0.9l1-0.5l0-0.5c0-0.7,0.2-1.3,0.5-1.6c0.4-0.3,1-0.5,1.8-0.5
		c0.6,0,1.2,0.1,1.6,0.3l-0.5,1.3c-0.4-0.1-0.7-0.2-1-0.2c-0.3,0-0.4,0.1-0.6,0.2c-0.1,0.2-0.2,0.3-0.2,0.6l0,0.4l1.5,0L48.6,56.6z"
		/>
	<path fill="#82CFA3" d="M55.6,58.5c0,1.1-0.3,1.9-0.8,2.5s-1.3,0.9-2.3,0.9c-0.6,0-1.2-0.1-1.7-0.4c-0.5-0.3-0.9-0.7-1.1-1.2
		s-0.4-1.1-0.4-1.8c0-1.1,0.3-1.9,0.8-2.5c0.6-0.6,1.3-0.9,2.4-0.9c0.6,0,1.2,0.1,1.7,0.4c0.5,0.3,0.9,0.7,1.1,1.2
		S55.6,57.8,55.6,58.5z M51.1,58.5c0,0.6,0.1,1.1,0.3,1.5c0.2,0.3,0.6,0.5,1,0.5c0.5,0,0.8-0.2,1-0.5c0.2-0.3,0.3-0.8,0.3-1.5
		c0-0.6-0.1-1.1-0.3-1.5c-0.2-0.3-0.6-0.5-1-0.5c-0.5,0-0.8,0.2-1,0.5C51.2,57.3,51,57.8,51.1,58.5z"/>
	<path fill="#82CFA3" d="M60.7,55c0.2,0,0.4,0,0.6,0.1l-0.1,1.7c-0.1,0-0.3-0.1-0.5-0.1c-0.6,0-1,0.2-1.3,0.4
		c-0.3,0.3-0.5,0.7-0.5,1.2l0,3.3l-1.8,0l0-6.6l1.4,0l0.3,1.1h0.1c0.2-0.4,0.5-0.7,0.8-0.9C59.9,55.2,60.3,55,60.7,55z"/>
	<path fill="#82CFA3" d="M69.2,61.8c-0.8,0-1.4-0.3-1.8-0.8h-0.1c0.1,0.5,0.1,0.9,0.1,0.9l0,2.7l-1.8,0l0-9.4l1.5,0l0.3,0.8h0.1
		c0.4-0.7,1-1,1.9-1c0.8,0,1.4,0.3,1.8,0.9c0.4,0.6,0.7,1.4,0.7,2.5c0,0.7-0.1,1.3-0.3,1.8s-0.5,0.9-0.9,1.2
		C70.2,61.7,69.7,61.8,69.2,61.8z M68.7,56.4c-0.4,0-0.8,0.1-1,0.4c-0.2,0.3-0.3,0.7-0.3,1.3l0,0.2c0,0.7,0.1,1.2,0.3,1.5
		c0.2,0.3,0.5,0.5,1,0.5c0.8,0,1.2-0.7,1.2-2c0-0.6-0.1-1.1-0.3-1.4C69.4,56.6,69.1,56.4,68.7,56.4z"/>
	<path fill="#82CFA3" d="M76.2,61.8c-1.1,0-1.9-0.3-2.5-0.9c-0.6-0.6-0.9-1.4-0.9-2.5c0-1.1,0.3-1.9,0.8-2.5
		c0.5-0.6,1.3-0.9,2.3-0.9c0.9,0,1.6,0.3,2.2,0.8s0.8,1.3,0.8,2.2l0,0.9l-4.2,0c0,0.5,0.2,0.9,0.5,1.2c0.3,0.3,0.7,0.4,1.2,0.4
		c0.4,0,0.8,0,1.1-0.1c0.4-0.1,0.7-0.2,1.1-0.4l0,1.4c-0.3,0.2-0.6,0.3-1,0.4S76.7,61.8,76.2,61.8z M75.9,56.3
		c-0.4,0-0.7,0.1-0.9,0.4c-0.2,0.2-0.3,0.6-0.4,1l2.5,0c0-0.4-0.1-0.8-0.3-1C76.6,56.4,76.3,56.3,75.9,56.3z"/>
	<path fill="#82CFA3" d="M86.3,58.3c0,1.1-0.3,1.9-0.8,2.5c-0.6,0.6-1.3,0.9-2.3,0.9c-0.6,0-1.2-0.1-1.7-0.4s-0.9-0.7-1.1-1.2
		s-0.4-1.1-0.4-1.8c0-1.1,0.3-1.9,0.8-2.5c0.6-0.6,1.3-0.9,2.4-0.9c0.6,0,1.2,0.1,1.7,0.4s0.9,0.7,1.1,1.2S86.3,57.6,86.3,58.3z
		 M81.7,58.4c0,0.6,0.1,1.1,0.3,1.5c0.2,0.3,0.6,0.5,1,0.5c0.5,0,0.8-0.2,1-0.5c0.2-0.3,0.3-0.8,0.3-1.5c0-0.6-0.1-1.1-0.3-1.5
		c-0.2-0.3-0.6-0.5-1-0.5c-0.5,0-0.8,0.2-1,0.5C81.8,57.2,81.7,57.7,81.7,58.4z"/>
	<path fill="#82CFA3" d="M91.3,61.7c-0.8,0-1.4-0.3-1.8-0.8h-0.1c0.1,0.5,0.1,0.9,0.1,0.9l0,2.7l-1.8,0l0-9.4l1.5,0l0.3,0.8h0.1
		c0.4-0.7,1-1,1.9-1c0.8,0,1.4,0.3,1.8,0.9c0.4,0.6,0.7,1.4,0.7,2.5c0,0.7-0.1,1.3-0.3,1.8c-0.2,0.5-0.5,0.9-0.9,1.2
		C92.3,61.6,91.9,61.7,91.3,61.7z M90.8,56.4c-0.4,0-0.8,0.1-1,0.4c-0.2,0.3-0.3,0.7-0.3,1.3l0,0.2c0,0.7,0.1,1.2,0.3,1.5
		c0.2,0.3,0.5,0.5,1,0.5c0.8,0,1.2-0.7,1.2-2c0-0.6-0.1-1.1-0.3-1.4C91.5,56.5,91.2,56.4,90.8,56.4z"/>
	<path fill="#82CFA3" d="M97.1,61.6l-1.8,0l0-9.1l1.8,0L97.1,61.6z"/>
	<path fill="#82CFA3" d="M102,61.7c-1.1,0-1.9-0.3-2.5-0.9c-0.6-0.6-0.9-1.4-0.9-2.5c0-1.1,0.3-1.9,0.8-2.5c0.5-0.6,1.3-0.9,2.3-0.9
		c0.9,0,1.6,0.3,2.2,0.8s0.8,1.3,0.8,2.2l0,0.9l-4.2,0c0,0.5,0.2,0.9,0.5,1.2c0.3,0.3,0.7,0.4,1.2,0.4c0.4,0,0.8,0,1.1-0.1
		c0.4-0.1,0.7-0.2,1.1-0.4l0,1.4c-0.3,0.2-0.6,0.3-1,0.4C102.9,61.6,102.5,61.7,102,61.7z M101.7,56.2c-0.4,0-0.7,0.1-0.9,0.4
		c-0.2,0.2-0.3,0.6-0.4,1l2.5,0c0-0.4-0.1-0.8-0.3-1C102.4,56.3,102.1,56.2,101.7,56.2z"/>
	<path fill="#82CFA3" d="M16.6,76.3l-0.3-0.9h0c-0.3,0.4-0.6,0.6-0.9,0.8c-0.3,0.1-0.7,0.2-1.2,0.2c-0.6,0-1.1-0.2-1.5-0.5
		S12,75,12,74.3c0-0.7,0.2-1.2,0.7-1.5c0.5-0.3,1.2-0.5,2.2-0.6l1.1,0l0-0.3c0-0.7-0.3-1-1-1c-0.5,0-1.1,0.2-1.8,0.5l-0.6-1.2
		c0.8-0.4,1.6-0.6,2.5-0.6c0.9,0,1.6,0.2,2,0.6c0.5,0.4,0.7,1,0.7,1.7l0,4.4L16.6,76.3z M16,73.3l-0.7,0c-0.5,0-0.9,0.1-1.2,0.3
		c-0.3,0.2-0.4,0.4-0.4,0.8c0,0.5,0.3,0.8,0.9,0.8c0.4,0,0.7-0.1,1-0.4c0.2-0.2,0.4-0.6,0.4-1L16,73.3z"/>
	<path fill="#82CFA3" d="M25.3,69.7l0,0.9l-1,0.3c0.2,0.3,0.3,0.6,0.3,1c0,0.7-0.2,1.3-0.7,1.6c-0.5,0.4-1.2,0.6-2,0.6l-0.3,0
		l-0.3,0c-0.2,0.1-0.3,0.3-0.3,0.5c0,0.3,0.3,0.4,1,0.4l1.1,0c0.7,0,1.3,0.1,1.6,0.5c0.4,0.3,0.6,0.8,0.6,1.4c0,0.8-0.3,1.4-1,1.8
		c-0.6,0.4-1.6,0.6-2.7,0.6c-0.9,0-1.6-0.2-2.1-0.5c-0.5-0.3-0.7-0.8-0.7-1.3c0-0.4,0.1-0.7,0.4-1s0.6-0.5,1.1-0.6
		c-0.2-0.1-0.3-0.2-0.5-0.4c-0.1-0.2-0.2-0.4-0.2-0.6c0-0.2,0.1-0.5,0.2-0.6c0.1-0.2,0.4-0.3,0.6-0.5c-0.3-0.1-0.6-0.4-0.8-0.7
		c-0.2-0.3-0.3-0.7-0.3-1.2c0-0.7,0.2-1.3,0.7-1.7c0.5-0.4,1.1-0.6,2-0.6c0.2,0,0.4,0,0.7,0c0.3,0,0.4,0.1,0.5,0.1L25.3,69.7z
		 M20.3,77.2c0,0.2,0.1,0.4,0.4,0.6s0.6,0.2,1,0.2c0.6,0,1.1-0.1,1.5-0.3c0.4-0.2,0.5-0.4,0.5-0.7c0-0.2-0.1-0.4-0.3-0.5
		c-0.2-0.1-0.5-0.1-1-0.1l-0.9,0c-0.3,0-0.6,0.1-0.8,0.2C20.4,76.7,20.3,76.9,20.3,77.2z M20.9,71.9c0,0.4,0.1,0.6,0.2,0.8
		c0.2,0.2,0.4,0.3,0.7,0.3c0.3,0,0.6-0.1,0.7-0.3s0.2-0.5,0.2-0.8c0-0.8-0.3-1.2-1-1.2C21.3,70.7,20.9,71.1,20.9,71.9z"/>
	<path fill="#82CFA3" d="M29.4,76.4c-1.1,0-1.9-0.3-2.5-0.9C26.3,74.9,26,74.1,26,73c0-1.1,0.3-1.9,0.8-2.5s1.3-0.9,2.3-0.9
		c0.9,0,1.6,0.3,2.2,0.8s0.8,1.3,0.8,2.2l0,0.9l-4.2,0c0,0.5,0.2,0.9,0.5,1.2c0.3,0.3,0.7,0.4,1.2,0.4c0.4,0,0.8,0,1.1-0.1
		c0.4-0.1,0.7-0.2,1.1-0.4l0,1.4c-0.3,0.2-0.6,0.3-1,0.4C30.3,76.3,29.9,76.4,29.4,76.4z M29.1,70.8c-0.4,0-0.7,0.1-0.9,0.4
		s-0.3,0.6-0.4,1l2.5,0c0-0.4-0.1-0.8-0.3-1S29.5,70.8,29.1,70.8z"/>
	<path fill="#82CFA3" d="M38.1,74.3c0,0.7-0.2,1.2-0.7,1.5c-0.5,0.4-1.2,0.5-2.1,0.5c-0.5,0-0.9,0-1.2-0.1c-0.3-0.1-0.7-0.2-0.9-0.3
		l0-1.5c0.3,0.2,0.7,0.3,1.1,0.4C34.7,75,35,75,35.4,75c0.6,0,1-0.2,1-0.6c0-0.1,0-0.3-0.1-0.3c-0.1-0.1-0.2-0.2-0.4-0.3
		s-0.5-0.2-0.8-0.4c-0.5-0.2-0.9-0.4-1.1-0.6c-0.2-0.2-0.4-0.4-0.5-0.6c-0.1-0.2-0.2-0.5-0.2-0.9c0-0.6,0.2-1,0.7-1.4
		c0.4-0.3,1.1-0.5,1.9-0.5c0.8,0,1.6,0.2,2.3,0.5l-0.5,1.3c-0.3-0.1-0.6-0.3-0.9-0.3c-0.3-0.1-0.6-0.1-0.9-0.1
		c-0.5,0-0.8,0.1-0.8,0.4c0,0.2,0.1,0.3,0.3,0.4c0.2,0.1,0.5,0.3,1.1,0.5c0.5,0.2,0.9,0.4,1.1,0.6c0.2,0.2,0.4,0.4,0.5,0.6
		C38,73.7,38.1,73.9,38.1,74.3z"/>
	<path fill="#82CFA3" d="M46.6,76.2l-1.8,0l0-5l0-0.8l0-0.9c-0.3,0.3-0.5,0.5-0.6,0.6l-1,0.8l-0.9-1.1l2.8-2.2l1.5,0L46.6,76.2z"/>
	<path fill="#82CFA3" d="M48.9,73.7l0-1.5l3.1,0l0,1.5L48.9,73.7z"/>
	<path fill="#82CFA3" d="M57.3,76.1l-1.8,0l0-5l0-0.8l0-0.9c-0.3,0.3-0.5,0.5-0.6,0.6l-1,0.8l-0.9-1.1l2.8-2.2l1.5,0L57.3,76.1z"/>
	<path fill="#82CFA3" d="M64.2,76.1l-1.8,0l0-5l0-0.8l0-0.9c-0.3,0.3-0.5,0.5-0.6,0.6l-1,0.8l-0.9-1.1l2.8-2.2l1.5,0L64.2,76.1z"/>
</g>
<g>
	<g>
		
			<line fill="none" stroke="#45825F" stroke-linecap="round" stroke-linejoin="round" x1="202.4" y1="112.5" x2="205.1" y2="109.6"/>
		
			<line fill="none" stroke="#45825F" stroke-linecap="round" stroke-linejoin="round" stroke-dasharray="6.8612,6.8612" x1="209.8" y1="104.5" x2="226" y2="86.8"/>
		<line fill="none" stroke="#45825F" stroke-linecap="round" stroke-linejoin="round" x1="228.3" y1="84.3" x2="231" y2="81.3"/>
	</g>
</g>
<g>
	<g>
		<line fill="none" stroke="#45825F" stroke-linecap="round" stroke-linejoin="round" x1="231" y1="81.5" x2="235" y2="81.5"/>
		
			<line fill="none" stroke="#45825F" stroke-linecap="round" stroke-linejoin="round" stroke-dasharray="8,8" x1="243" y1="81.5" x2="317" y2="81.5"/>
		<line fill="none" stroke="#45825F" stroke-linecap="round" stroke-linejoin="round" x1="321" y1="81.5" x2="325" y2="81.5"/>
	</g>
</g>
<g>
	<path fill="#45825F" d="M247.6,73.8h-5.1V59.7l0-2.3l0.1-2.5c-0.9,0.9-1.4,1.4-1.8,1.7l-2.8,2.2l-2.5-3.1l7.8-6.2h4.2V73.8z"/>
	<path fill="#45825F" d="M262.7,49.2c2.3,0,4.2,0.5,5.6,1.6c1.4,1.1,2.1,2.5,2.1,4.3c0,1.2-0.3,2.3-1,3.3c-0.7,1-1.8,1.8-3.3,2.6
		c1.8,1,3.1,2,3.9,3c0.8,1.1,1.2,2.2,1.2,3.5c0,2-0.8,3.6-2.3,4.8s-3.6,1.8-6.2,1.8c-2.7,0-4.7-0.6-6.3-1.7
		c-1.5-1.1-2.3-2.7-2.3-4.8c0-1.4,0.4-2.6,1.1-3.7c0.7-1.1,1.9-2,3.5-2.8c-1.4-0.9-2.4-1.8-3-2.8c-0.6-1-0.9-2.1-0.9-3.3
		c0-1.7,0.7-3.1,2.2-4.2C258.5,49.7,260.3,49.2,262.7,49.2z M258.9,67.3c0,1,0.3,1.7,1,2.2c0.7,0.5,1.6,0.8,2.7,0.8
		c1.3,0,2.2-0.3,2.9-0.8c0.6-0.5,0.9-1.3,0.9-2.2c0-0.7-0.3-1.4-0.9-2.1c-0.6-0.6-1.6-1.3-3-2.1C260.1,64.3,258.9,65.6,258.9,67.3z
		 M262.6,52.9c-0.9,0-1.6,0.2-2.1,0.7c-0.5,0.4-0.8,1-0.8,1.8c0,0.7,0.2,1.3,0.6,1.8c0.4,0.5,1.2,1.1,2.3,1.6c1.1-0.5,1.8-1,2.3-1.6
		c0.4-0.5,0.6-1.1,0.6-1.8c0-0.8-0.3-1.4-0.8-1.8C264.2,53.1,263.5,52.9,262.6,52.9z"/>
	<path fill="#45825F" d="M284.9,56.7c0,2.5-0.5,4.5-1.5,5.7c-1,1.3-2.4,1.9-4.3,1.9c-1.8,0-3.2-0.7-4.2-2c-1-1.3-1.5-3.2-1.5-5.7
		c0-5.1,1.9-7.6,5.7-7.6c1.9,0,3.3,0.7,4.3,2C284.4,52.4,284.9,54.3,284.9,56.7z M277.6,56.7c0,1.4,0.1,2.5,0.4,3.1
		c0.2,0.7,0.7,1,1.2,1c1.1,0,1.6-1.4,1.6-4.2c0-2.8-0.5-4.2-1.6-4.2c-0.6,0-1,0.3-1.2,1C277.7,54.3,277.6,55.3,277.6,56.7z
		 M296.4,49.5l-13.5,24.3h-4l13.5-24.3H296.4z M302,66.4c0,2.5-0.5,4.4-1.5,5.7s-2.4,1.9-4.3,1.9c-1.8,0-3.2-0.7-4.2-2
		s-1.5-3.2-1.5-5.7c0-5.1,1.9-7.6,5.7-7.6c1.9,0,3.3,0.7,4.3,2S302,64,302,66.4z M294.6,66.5c0,1.4,0.1,2.5,0.4,3.1
		c0.2,0.7,0.7,1,1.2,1c1.1,0,1.6-1.4,1.6-4.2c0-2.8-0.5-4.2-1.6-4.2c-0.6,0-1,0.3-1.2,1C294.7,64,294.6,65,294.6,66.5z"/>
</g>
<g>
	<path fill="#45825F" d="M239.6,98.9c0,0.8-0.3,1.4-0.8,1.8c-0.6,0.4-1.3,0.7-2.3,0.7c-0.9,0-1.7-0.2-2.4-0.5l0-1.7
		c0.6,0.3,1.1,0.4,1.5,0.5c0.4,0.1,0.8,0.2,1.1,0.2c0.4,0,0.7-0.1,0.9-0.2c0.2-0.2,0.3-0.4,0.3-0.7c0-0.2,0-0.3-0.1-0.4
		c-0.1-0.1-0.2-0.3-0.4-0.4c-0.2-0.1-0.6-0.3-1.1-0.6c-0.5-0.2-0.9-0.5-1.2-0.7s-0.5-0.5-0.6-0.8c-0.2-0.3-0.2-0.7-0.2-1.1
		c0-0.8,0.3-1.4,0.8-1.8c0.5-0.4,1.2-0.7,2.1-0.7c0.4,0,0.9,0,1.3,0.2c0.4,0.1,0.8,0.3,1.3,0.4l-0.6,1.4c-0.5-0.2-0.8-0.3-1.1-0.4
		c-0.3-0.1-0.6-0.1-0.9-0.1c-0.3,0-0.6,0.1-0.8,0.2c-0.2,0.2-0.3,0.4-0.3,0.6c0,0.2,0,0.3,0.1,0.4c0.1,0.1,0.2,0.2,0.4,0.3
		c0.2,0.1,0.5,0.3,1.2,0.6c0.8,0.4,1.4,0.8,1.7,1.1C239.5,97.9,239.6,98.4,239.6,98.9z"/>
	<path fill="#45825F" d="M247.1,101.3l-1.8,0l0-3.8c0-0.9-0.4-1.4-1.1-1.4c-0.5,0-0.9,0.2-1.1,0.5c-0.2,0.3-0.3,0.9-0.3,1.7l0,3.1
		l-1.8,0l0-9.1l1.8,0l0,1.9c0,0.1,0,0.5,0,1l0,0.5l0.1,0c0.4-0.6,1-1,1.9-1c0.8,0,1.4,0.2,1.8,0.6c0.4,0.4,0.6,1,0.6,1.8
		L247.1,101.3z"/>
	<path fill="#45825F" d="M254.9,98c0,1.1-0.3,1.9-0.8,2.5c-0.6,0.6-1.3,0.9-2.3,0.9c-0.6,0-1.2-0.1-1.7-0.4s-0.9-0.7-1.1-1.2
		s-0.4-1.1-0.4-1.8c0-1.1,0.3-1.9,0.8-2.5c0.6-0.6,1.3-0.9,2.4-0.9c0.6,0,1.2,0.1,1.7,0.4s0.9,0.7,1.1,1.2S254.9,97.3,254.9,98z
		 M250.3,98c0,0.6,0.1,1.1,0.3,1.5s0.6,0.5,1,0.5c0.5,0,0.8-0.2,1-0.5s0.3-0.8,0.3-1.5c0-0.6-0.1-1.1-0.3-1.5
		c-0.2-0.3-0.6-0.5-1-0.5c-0.5,0-0.8,0.2-1,0.5C250.4,96.8,250.3,97.3,250.3,98z"/>
	<path fill="#45825F" d="M260,101.4c-0.8,0-1.4-0.3-1.8-0.8h-0.1c0.1,0.5,0.1,0.9,0.1,0.9l0,2.7l-1.8,0l0-9.4l1.5,0l0.3,0.8h0.1
		c0.4-0.7,1-1,1.9-1c0.8,0,1.4,0.3,1.8,0.9c0.4,0.6,0.7,1.4,0.7,2.5c0,0.7-0.1,1.3-0.3,1.8s-0.5,0.9-0.9,1.2
		C260.9,101.2,260.5,101.4,260,101.4z M259.4,96c-0.4,0-0.8,0.1-1,0.4c-0.2,0.3-0.3,0.7-0.3,1.3l0,0.2c0,0.7,0.1,1.2,0.3,1.5
		c0.2,0.3,0.5,0.5,1,0.5c0.8,0,1.2-0.7,1.2-2c0-0.6-0.1-1.1-0.3-1.4S259.8,96,259.4,96z"/>
	<path fill="#45825F" d="M270.7,96l-1.5,0l0,5.2l-1.8,0l0-5.2l-1,0l0-0.9l1-0.5l0-0.5c0-0.7,0.2-1.3,0.5-1.6c0.4-0.3,1-0.5,1.8-0.5
		c0.6,0,1.2,0.1,1.6,0.3l-0.5,1.3c-0.4-0.1-0.7-0.2-1-0.2c-0.3,0-0.4,0.1-0.6,0.2c-0.1,0.2-0.2,0.3-0.2,0.6l0,0.4l1.5,0L270.7,96z"
		/>
	<path fill="#45825F" d="M277.7,97.9c0,1.1-0.3,1.9-0.8,2.5c-0.6,0.6-1.3,0.9-2.3,0.9c-0.6,0-1.2-0.1-1.7-0.4
		c-0.5-0.3-0.9-0.7-1.1-1.2s-0.4-1.1-0.4-1.8c0-1.1,0.3-1.9,0.8-2.5s1.3-0.9,2.4-0.9c0.6,0,1.2,0.1,1.7,0.4c0.5,0.3,0.9,0.7,1.1,1.2
		S277.7,97.2,277.7,97.9z M273.1,97.9c0,0.6,0.1,1.1,0.3,1.5c0.2,0.3,0.6,0.5,1,0.5c0.5,0,0.8-0.2,1-0.5c0.2-0.3,0.3-0.8,0.3-1.5
		c0-0.6-0.1-1.1-0.3-1.5s-0.6-0.5-1-0.5c-0.5,0-0.8,0.2-1,0.5S273.1,97.2,273.1,97.9z"/>
	<path fill="#45825F" d="M282.8,94.5c0.2,0,0.4,0,0.6,0.1l-0.1,1.7c-0.1,0-0.3-0.1-0.5-0.1c-0.6,0-1,0.2-1.3,0.4
		c-0.3,0.3-0.5,0.7-0.5,1.2l0,3.3l-1.8,0l0-6.6l1.4,0l0.3,1.1h0.1c0.2-0.4,0.5-0.7,0.8-0.9C282,94.6,282.4,94.5,282.8,94.5z"/>
	<path fill="#45825F" d="M291.3,101.2c-0.8,0-1.4-0.3-1.8-0.8h-0.1c0.1,0.5,0.1,0.9,0.1,0.9l0,2.7l-1.8,0l0-9.4l1.5,0l0.3,0.8h0.1
		c0.4-0.7,1-1,1.9-1c0.8,0,1.4,0.3,1.8,0.9c0.4,0.6,0.7,1.4,0.7,2.5c0,0.7-0.1,1.3-0.3,1.8s-0.5,0.9-0.9,1.2
		C292.3,101.1,291.8,101.2,291.3,101.2z M290.8,95.9c-0.4,0-0.8,0.1-1,0.4c-0.2,0.3-0.3,0.7-0.3,1.3l0,0.2c0,0.7,0.1,1.2,0.3,1.5
		c0.2,0.3,0.5,0.5,1,0.5c0.8,0,1.2-0.7,1.2-2c0-0.6-0.1-1.1-0.3-1.4S291.2,95.9,290.8,95.9z"/>
	<path fill="#45825F" d="M298.3,101.2c-1.1,0-1.9-0.3-2.5-0.9c-0.6-0.6-0.9-1.4-0.9-2.5c0-1.1,0.3-1.9,0.8-2.5s1.3-0.9,2.3-0.9
		c0.9,0,1.6,0.3,2.2,0.8s0.8,1.3,0.8,2.2l0,0.9l-4.2,0c0,0.5,0.2,0.9,0.5,1.2s0.7,0.4,1.2,0.4c0.4,0,0.8,0,1.1-0.1
		c0.4-0.1,0.7-0.2,1.1-0.4l0,1.4c-0.3,0.2-0.6,0.3-1,0.4C299.2,101.2,298.8,101.2,298.3,101.2z M298,95.7c-0.4,0-0.7,0.1-0.9,0.4
		c-0.2,0.2-0.3,0.6-0.4,1l2.5,0c0-0.4-0.1-0.8-0.3-1C298.7,95.8,298.4,95.7,298,95.7z"/>
	<path fill="#45825F" d="M308.3,97.8c0,1.1-0.3,1.9-0.8,2.5c-0.6,0.6-1.3,0.9-2.3,0.9c-0.6,0-1.2-0.1-1.7-0.4s-0.9-0.7-1.1-1.2
		s-0.4-1.1-0.4-1.8c0-1.1,0.3-1.9,0.8-2.5c0.6-0.6,1.3-0.9,2.4-0.9c0.6,0,1.2,0.1,1.7,0.4s0.9,0.7,1.1,1.2S308.3,97.1,308.3,97.8z
		 M303.8,97.8c0,0.6,0.1,1.1,0.3,1.5c0.2,0.3,0.6,0.5,1,0.5c0.5,0,0.8-0.2,1-0.5c0.2-0.3,0.3-0.8,0.3-1.5c0-0.6-0.1-1.1-0.3-1.5
		c-0.2-0.3-0.6-0.5-1-0.5c-0.5,0-0.8,0.2-1,0.5C303.9,96.6,303.8,97.1,303.8,97.8z"/>
	<path fill="#45825F" d="M313.4,101.2c-0.8,0-1.4-0.3-1.8-0.8h-0.1c0.1,0.5,0.1,0.9,0.1,0.9l0,2.7l-1.8,0l0-9.4l1.5,0l0.3,0.8h0.1
		c0.4-0.7,1-1,1.9-1c0.8,0,1.4,0.3,1.8,0.9s0.7,1.4,0.7,2.5c0,0.7-0.1,1.3-0.3,1.8c-0.2,0.5-0.5,0.9-0.9,1.2
		C314.4,101,313.9,101.2,313.4,101.2z M312.9,95.8c-0.4,0-0.8,0.1-1,0.4c-0.2,0.3-0.3,0.7-0.3,1.3l0,0.2c0,0.7,0.1,1.2,0.3,1.5
		c0.2,0.3,0.5,0.5,1,0.5c0.8,0,1.2-0.7,1.2-2c0-0.6-0.1-1.1-0.3-1.4C313.6,96,313.3,95.8,312.9,95.8z"/>
	<path fill="#45825F" d="M319.2,101l-1.8,0l0-9.1l1.8,0L319.2,101z"/>
	<path fill="#45825F" d="M324,101.1c-1.1,0-1.9-0.3-2.5-0.9c-0.6-0.6-0.9-1.4-0.9-2.5c0-1.1,0.3-1.9,0.8-2.5s1.3-0.9,2.3-0.9
		c0.9,0,1.6,0.3,2.2,0.8s0.8,1.3,0.8,2.2l0,0.9l-4.2,0c0,0.5,0.2,0.9,0.5,1.2c0.3,0.3,0.7,0.4,1.2,0.4c0.4,0,0.8,0,1.1-0.1
		c0.4-0.1,0.7-0.2,1.1-0.4l0,1.4c-0.3,0.2-0.6,0.3-1,0.4C325,101.1,324.6,101.1,324,101.1z M323.8,95.6c-0.4,0-0.7,0.1-0.9,0.4
		c-0.2,0.2-0.3,0.6-0.4,1l2.5,0c0-0.4-0.1-0.8-0.3-1S324.2,95.6,323.8,95.6z"/>
	<path fill="#45825F" d="M238.7,115.7l-0.3-0.9h0c-0.3,0.4-0.6,0.6-0.9,0.8c-0.3,0.1-0.7,0.2-1.2,0.2c-0.6,0-1.1-0.2-1.5-0.5
		c-0.4-0.4-0.5-0.9-0.5-1.5c0-0.7,0.2-1.2,0.7-1.5c0.5-0.3,1.2-0.5,2.2-0.6l1.1,0l0-0.3c0-0.7-0.3-1-1-1c-0.5,0-1.1,0.2-1.8,0.5
		l-0.6-1.2c0.8-0.4,1.6-0.6,2.5-0.6c0.9,0,1.6,0.2,2,0.6c0.5,0.4,0.7,1,0.7,1.7l0,4.4L238.7,115.7z M238.1,112.7l-0.7,0
		c-0.5,0-0.9,0.1-1.2,0.3c-0.3,0.2-0.4,0.4-0.4,0.8c0,0.5,0.3,0.8,0.9,0.8c0.4,0,0.7-0.1,1-0.4s0.4-0.6,0.4-1L238.1,112.7z"/>
	<path fill="#45825F" d="M247.4,109.1l0,0.9l-1,0.3c0.2,0.3,0.3,0.6,0.3,1c0,0.7-0.2,1.3-0.7,1.6c-0.5,0.4-1.2,0.6-2,0.6l-0.3,0
		l-0.3,0c-0.2,0.1-0.3,0.3-0.3,0.5c0,0.3,0.3,0.4,1,0.4l1.1,0c0.7,0,1.3,0.1,1.6,0.5c0.4,0.3,0.6,0.8,0.6,1.4c0,0.8-0.3,1.4-1,1.8
		c-0.6,0.4-1.6,0.6-2.7,0.6c-0.9,0-1.6-0.2-2.1-0.5s-0.7-0.8-0.7-1.3c0-0.4,0.1-0.7,0.4-1s0.6-0.5,1.1-0.6c-0.2-0.1-0.3-0.2-0.5-0.4
		c-0.1-0.2-0.2-0.4-0.2-0.6c0-0.2,0.1-0.5,0.2-0.6c0.1-0.2,0.4-0.3,0.6-0.5c-0.3-0.1-0.6-0.4-0.8-0.7c-0.2-0.3-0.3-0.7-0.3-1.2
		c0-0.7,0.2-1.3,0.7-1.7c0.5-0.4,1.1-0.6,2-0.6c0.2,0,0.4,0,0.7,0c0.3,0,0.4,0.1,0.5,0.1L247.4,109.1z M242.4,116.6
		c0,0.2,0.1,0.4,0.4,0.6c0.2,0.1,0.6,0.2,1,0.2c0.6,0,1.1-0.1,1.5-0.3c0.4-0.2,0.5-0.4,0.5-0.7c0-0.2-0.1-0.4-0.3-0.5
		c-0.2-0.1-0.5-0.1-1-0.1l-0.9,0c-0.3,0-0.6,0.1-0.8,0.2S242.4,116.4,242.4,116.6z M243,111.3c0,0.4,0.1,0.6,0.2,0.8
		c0.2,0.2,0.4,0.3,0.7,0.3c0.3,0,0.6-0.1,0.7-0.3s0.2-0.5,0.2-0.8c0-0.8-0.3-1.2-1-1.2C243.3,110.1,243,110.5,243,111.3z"/>
	<path fill="#45825F" d="M251.5,115.8c-1.1,0-1.9-0.3-2.5-0.9s-0.9-1.4-0.9-2.5c0-1.1,0.3-1.9,0.8-2.5c0.5-0.6,1.3-0.9,2.3-0.9
		c0.9,0,1.6,0.3,2.2,0.8s0.8,1.3,0.8,2.2l0,0.9l-4.2,0c0,0.5,0.2,0.9,0.5,1.2c0.3,0.3,0.7,0.4,1.2,0.4c0.4,0,0.8,0,1.1-0.1
		c0.4-0.1,0.7-0.2,1.1-0.4l0,1.4c-0.3,0.2-0.6,0.3-1,0.4C252.4,115.7,252,115.8,251.5,115.8z M251.2,110.3c-0.4,0-0.7,0.1-0.9,0.4
		s-0.3,0.6-0.4,1l2.5,0c0-0.4-0.1-0.8-0.3-1S251.6,110.3,251.2,110.3z"/>
	<path fill="#45825F" d="M260.2,113.7c0,0.7-0.2,1.2-0.7,1.5c-0.5,0.4-1.2,0.5-2.1,0.5c-0.5,0-0.9,0-1.2-0.1
		c-0.3-0.1-0.7-0.2-0.9-0.3l0-1.5c0.3,0.2,0.7,0.3,1.1,0.4c0.4,0.1,0.8,0.2,1.1,0.2c0.6,0,1-0.2,1-0.6c0-0.1,0-0.3-0.1-0.3
		c-0.1-0.1-0.2-0.2-0.4-0.3c-0.2-0.1-0.5-0.2-0.8-0.4c-0.5-0.2-0.9-0.4-1.1-0.6c-0.2-0.2-0.4-0.4-0.5-0.6c-0.1-0.2-0.2-0.5-0.2-0.9
		c0-0.6,0.2-1,0.7-1.4c0.5-0.3,1.1-0.5,1.9-0.5c0.8,0,1.6,0.2,2.3,0.5l-0.5,1.3c-0.3-0.1-0.6-0.3-0.9-0.3s-0.6-0.1-0.9-0.1
		c-0.5,0-0.8,0.1-0.8,0.4c0,0.2,0.1,0.3,0.3,0.4c0.2,0.1,0.5,0.3,1.1,0.5c0.5,0.2,0.9,0.4,1.1,0.6c0.2,0.2,0.4,0.4,0.5,0.6
		C260.1,113.1,260.2,113.4,260.2,113.7z"/>
	<path fill="#45825F" d="M268.7,115.6l-1.8,0l0-5l0-0.8l0-0.9c-0.3,0.3-0.5,0.5-0.6,0.6l-1,0.8l-0.9-1.1l2.8-2.2l1.5,0L268.7,115.6z
		"/>
	<path fill="#45825F" d="M274,106.9c0.8,0,1.5,0.2,2,0.6c0.5,0.4,0.8,0.9,0.8,1.5c0,0.4-0.1,0.8-0.4,1.2c-0.2,0.3-0.6,0.6-1.2,0.9
		c0.6,0.3,1.1,0.7,1.4,1.1c0.3,0.4,0.4,0.8,0.4,1.2c0,0.7-0.3,1.3-0.8,1.7c-0.5,0.4-1.3,0.6-2.2,0.6c-0.9,0-1.7-0.2-2.2-0.6
		c-0.5-0.4-0.8-1-0.8-1.7c0-0.5,0.1-0.9,0.4-1.3c0.3-0.4,0.7-0.7,1.2-1c-0.5-0.3-0.8-0.6-1.1-1c-0.2-0.4-0.3-0.7-0.3-1.2
		c0-0.6,0.2-1.1,0.8-1.5C272.5,107.1,273.2,106.9,274,106.9z M272.7,113.3c0,0.3,0.1,0.6,0.4,0.8c0.2,0.2,0.6,0.3,1,0.3
		c0.4,0,0.8-0.1,1-0.3c0.2-0.2,0.3-0.4,0.3-0.8c0-0.3-0.1-0.5-0.3-0.7s-0.6-0.5-1.1-0.7C273.1,112.2,272.7,112.7,272.7,113.3z
		 M274,108.2c-0.3,0-0.6,0.1-0.7,0.2c-0.2,0.2-0.3,0.4-0.3,0.6c0,0.2,0.1,0.4,0.2,0.6c0.2,0.2,0.4,0.4,0.8,0.6
		c0.4-0.2,0.6-0.4,0.8-0.6c0.2-0.2,0.2-0.4,0.2-0.7c0-0.3-0.1-0.5-0.3-0.6C274.6,108.3,274.3,108.2,274,108.2z"/>
	<path fill="#45825F" d="M280.2,112l-2.3,0l0-1.3l2.3,0l0-2.3l1.3,0l0,2.3l2.3,0l0,1.3l-2.3,0l0,2.3l-1.3,0L280.2,112z"/>
</g>
<g>
</g>
<g>
</g>
<g>
</g>
<g>
</g>
<g>
</g>
<g>
</g>
<g>
</g>
<g>
</g>
<g>
</g>
<g>
</g>
<g>
</g>
<g>
</g>
<g>
</g>
<g>
</g>
<g>
</g>
</svg>
