<?xml version="1.0" encoding="utf-8"?>
<!-- Generator: Adobe Illustrator 17.0.0, SVG Export Plug-In . SVG Version: 6.00 Build 0)  -->
<!DOCTYPE svg PUBLIC "-//W3C//DTD SVG 1.1//EN" "http://www.w3.org/Graphics/SVG/1.1/DTD/svg11.dtd">
<svg version="1.1" id="Layer_1" xmlns="http://www.w3.org/2000/svg" xmlns:xlink="http://www.w3.org/1999/xlink" x="0px" y="0px"
	 width="91.3px" height="87.4px" viewBox="0 0 91.3 87.4" enable-background="new 0 0 91.3 87.4" xml:space="preserve">
<g>
	<g>
		<g>
			<path fill="#FFC215" d="M48.2,22c-0.2-6.4,1.9-11.3,9.1-11c4.2,0.1,8.4,1.7,11.8,4.1c1.8,1.3,3.4,2.7,1,3.9
				c-2.3,1.2-5.2,1.3-7.7,1.5c-5.2,0.4-10.5,0.3-15.8,0c-1.9-0.1-1.9,2.9,0,3c5.9,0.3,11.9,0.4,17.8-0.2c2.7-0.3,5.9-0.7,8.2-2.3
				c3.4-2.4,1.3-5.9-1.2-7.9c-4.4-3.4-10.2-5.2-15.7-5.1C47.7,8,45,15,45.2,22C45.3,23.9,48.3,23.9,48.2,22L48.2,22z"/>
		</g>
	</g>
	<g>
		<g>
			<path fill="#FFC215" d="M48.2,21.4c0.2-6.9-2.2-13.1-9.8-14C33,6.8,26.6,9,22.2,12.2c-2.5,1.9-5.1,5.4-1.9,7.9
				c2.2,1.7,5.2,2.1,7.8,2.5c6.1,0.7,12.3,0.6,18.4,0.3c1.9-0.1,1.9-3.1,0-3c-7.4,0.3-16.1,1.2-23.2-1.4c-2.7-1-1.3-2.5,0.5-3.9
				c3.3-2.4,7.2-3.7,11.2-4.2c7.6-0.9,10.2,4.3,10,11C45.1,23.4,48.1,23.4,48.2,21.4L48.2,21.4z"/>
		</g>
	</g>
	<rect x="17" y="36" fill="#FFD662" width="58" height="38"/>
	<rect x="17" y="36" fill="#FFC215" width="58" height="9"/>
	<rect x="13" y="22" fill="#FFD662" width="66" height="12"/>
	<rect x="43" y="36" opacity="0.7" fill="#DD4A6D" width="6" height="38"/>
	<rect x="43" y="22" opacity="0.7" fill="#DD4A6D" width="6" height="12"/>
	<path fill="none" stroke="#DD4A6D" stroke-miterlimit="10" d="M43.1,22.5"/>
	<path fill="none" stroke="#DD4A6D" stroke-miterlimit="10" d="M67.5,22.2"/>
	<path fill="none" stroke="#DD4A6D" stroke-miterlimit="10" d="M43.1,22.5"/>
	<g>
		<g>
			<path fill="#DD4A6D" d="M45.2,21.6c-0.2-8.1,2.5-14.4,11.7-14c5.2,0.2,10.6,2.2,14.9,5.1c2.3,1.6,4.6,3.8,1.3,5.5
				c-2.9,1.5-6.6,1.7-9.8,1.9c-6.5,0.5-13,0.3-19.5,0c-1.9-0.1-1.9,2.9,0,3c7.4,0.3,14.8,0.5,22.1-0.3c3.3-0.4,7.1-0.8,9.9-2.8
				c4-2.8,1.4-7-1.6-9.3c-5.4-4.2-12.5-6.3-19.2-6.2c-9.8,0.1-12.9,8.7-12.7,17.1C42.2,23.6,45.2,23.6,45.2,21.6L45.2,21.6z"/>
		</g>
	</g>
	<g>
		<g>
			<path fill="#DD4A6D" d="M50.3,21.2c0.3-8.4-2.6-15.9-11.8-17c-6.6-0.8-14.5,1.9-19.8,5.9c-2.9,2.2-6,6.3-2.2,9.3
				c2.6,2,6.3,2.6,9.5,3c7.6,0.9,15.3,0.7,22.9,0.4c1.9-0.1,1.9-3.1,0-3c-9.2,0.4-20.1,1.5-28.9-1.8c-3.7-1.4-1.7-3.7,0.6-5.4
				c4.1-3,9.1-4.7,14.1-5.3c9.6-1.2,13,5.5,12.7,14C47.3,23.1,50.3,23.1,50.3,21.2L50.3,21.2z"/>
		</g>
	</g>
</g>
<g>
</g>
<g>
</g>
<g>
</g>
<g>
</g>
<g>
</g>
<g>
</g>
<g>
</g>
<g>
</g>
<g>
</g>
<g>
</g>
<g>
</g>
<g>
</g>
<g>
</g>
<g>
</g>
<g>
</g>
</svg>
